
<global>
amp_veltrack=0
ampeg_release=2.5
master-volume=-12.0
</global>

<group>
group_label=RR1_0-42
lpc_hicc1=42
lpc_locc1=0
seq_length=4
seq_position=1

<region>
hikey=a3
hivel=127
lokey=g#3
lovel=0
lpc=pXhgQXM11cFMB4pBQVE8wI2SYb+pSIS/vzGiP1hKAcDxlII9bso0P0rPqT4xXpU+7kAsv4ReYL81nac/Ii2ZP6wvGr65EIi/ljKPvU3cXD9DMdE+tsiIvwjczD8Y4Z+/
lpc_rms=-54.05
offset=11653
pitch_keycenter=a3
sample=Soloviolin1_pizzicato_PP_A3_RR1.opus
</region>

<region>
hikey=a4
hivel=127
lokey=g#4
lovel=0
lpc=olXIQVPTcsLDrV1CfWG5wc1xwEABO63A4dGHQJuQesAcD1pAN1qEQM9TNMHAujZBvkOIwDSzUsDBEspAgKunv58ZzsBc2QNBhBDGwH8eBkCQU31Ae/TAwLTzdz81NOk/
lpc_rms=-41.78
pitch_keycenter=a4
sample=Soloviolin1_pizzicato_PP_A4_RR1.opus
</region>

<region>
hikey=a5
hivel=127
lokey=g#5
lovel=0
lpc=mJsQQRjbnMGxd49BU4AowZL940AWAbrAmlMxQCKcRL/c4gdA8VglwNFGVj9FUtq/vSnTP4HrsD88cN+/Ocefv+T2Dz/VSZVA8fq7wDvQhEANZmrAyZU9QDdMv76RbiW/
lpc_rms=-41.70
offset=10431
pitch_keycenter=a5
sample=Soloviolin1_pizzicato_PP_A5_RR1.opus
</region>

<region>
hikey=a6
hivel=127
lokey=g#6
lovel=0
lpc=qc3NQLLKWMEDkzdBaesewGX+DsBgUqg/vGaLvq++Yz7cOb0/uBBswG3mM0BWNAu9oa46P+IPo8BECLBAMyeZvxSrzb9X0bu80UwDQMuMjr88xF8+6uaav+wiD0Cvb5a/
lpc_rms=-49.50
pitch_keycenter=a6
sample=Soloviolin1_pizzicato_PP_A6_RR1.opus
</region>

<region>
hikey=b3
hivel=127
lokey=a#3
lovel=0
lpc=lW+dQZytKsLuCPdBSyLEwNqGEcCiiLG/FfpXQDSQKcDmCE4/8RgrP/dw+T4QVZc+yvqnvxuIHz/vXRE/VgHRPb/FRL8vsfC/ErK9P1t2BEDdtp6+nXunwM3EzkCqXhvA
lpc_rms=-49.63
offset=5936
pitch_keycenter=b3
sample=Soloviolin1_pizzicato_PP_B3_RR1.opus
</region>

<region>
hikey=b4
hivel=127
lokey=a#4
lovel=0
lpc=DQkYQcP/uMGIiblBk+NNwSkV50CIuQfBJggMQcZy18D+l5FAEEnuv9Z1er/eLx1Ac5HCvxLELD+O/NK+y5IAQHZUgsBnJCpAiyAyvq8ebr/NUt8/uYYGwCnySz/Pf5g+
lpc_rms=-48.37
pitch_keycenter=b4
sample=Soloviolin1_pizzicato_PP_B4_RR1.opus
</region>

<region>
hikey=b5
hivel=127
lokey=a#5
lovel=0
lpc=y0oQQYkDicEZMWlBPoyxwDyi7L/PH5w/2cflP+mEXMB4mcs/6TUGQNB4G8BOQBQ+oiWTQLEszcA4TdZA6cuxwHjk6D+ASL8+OgCSv2KLhryWaEi/GnBuQPQ+gMDx/aM/
lpc_rms=-48.44
offset=5872
pitch_keycenter=b5
sample=Soloviolin1_pizzicato_PP_B5_RR1.opus
</region>

<region>
hikey=E7
hivel=127
lokey=a#6
lovel=0
lpc=+6+IQJ6I9MDUhvFAxJaTwFQ8vD+nXtQ+oqWLvxCzlD95l0C/ZYbXPgSBGL88uFQ/ONgRwBJSEkDeD4O/VPpBv54lsj9meBS/QQHbvudhrj8YQ7i/0EukP0zSEL9aBq09
lpc_rms=-49.33
pitch_keycenter=B6
sample=Soloviolin1_pizzicato_PP_B6_RR1.opus
</region>

<region>
hikey=c#4
hivel=127
lokey=c4
lovel=0
lpc=kIo0QpzN2MIxZcdCB7ItwvuWd0Hqa5TBUxLJQOLDqb+5b4JBY7WDwYZrNMDW3gRBaRxYQOCXzD+OuBTBKt6QQBzXV0CrZqS+sjmSwBh7tUCIgPrA9XjvQEShGMFoSbpA
lpc_rms=-37.97
offset=618
pitch_keycenter=c#4
sample=Soloviolin1_pizzicato_PP_C#4_RR1.opus
</region>

<region>
hikey=c#5
hivel=127
lokey=c5
lovel=0
lpc=NR81QZOx2MHn39BBui1DwbaxiEAXpZnAH3+ZQIquosBJgL1AVBV5wGLbqr700Jg/ooYHQBFjlMDpV6xAOmVNwETnEr+SB58/VD0cQHFlhsCYdBdAv2uOvZHuZ7+d6QE/
lpc_rms=-45.90
offset=76
pitch_keycenter=c#5
sample=Soloviolin1_pizzicato_PP_C#5_RR1.opus
</region>

<region>
hikey=c#6
hivel=127
lokey=c6
lovel=0
lpc=+GmsQMo2JMF1a+pAOA8VwFaKvD99RBvANUQNQDv7KsDS1XFAY4YZwD0lnb9dOThApwtyvxLaVb/WIas/Ajxpv5W8vb79jbk/6dxEPpYGCMCw9co/NkLCv1gftD/OFYG+
lpc_rms=-48.99
pitch_keycenter=c#6
sample=Soloviolin1_pizzicato_PP_C#6_RR1.opus
</region>

<region>
hikey=d#4
hivel=127
lokey=d4
lovel=0
lpc=lxFgQQKE88EKLMpBMnEgwRJwVkAHvmLAvpNhPyy2LEDa3Z2/D2rOv5MwPj/7tQE+GgQDQDnLOcDgWze/JVAyQNXBB7/WB+2/o+uHP6U5TD9PJxfA5MhGQBzgUMDRLRFA
lpc_rms=-50.46
offset=11644
pitch_keycenter=d#4
sample=Soloviolin1_pizzicato_PP_D#4_RR1.opus
</region>

<region>
hikey=d#5
hivel=127
lokey=d5
lovel=0
lpc=x61wQaDfEsKN1RFCDOirwTxSMEFHlJnAgP8HQJYp2b85Bq8/eAzRP4dZ9sAmobdA8yqhQE/cBsFqtIpAHf40wEGNrj8h2a4/YZsGwE55FT94Cv4/Oty3v0wK97/unglA
lpc_rms=-42.52
pitch_keycenter=d#5
sample=Soloviolin1_pizzicato_PP_D#5_RR1.opus
</region>

<region>
hikey=d#6
hivel=127
lokey=d6
lovel=0
lpc=0i2yQAH2E8EMSn5AwVOqP4ZIl7/xAd29QTP1Pp0/CsCjYlZAJ8oDwHRMWD8k4H0+F4ABwDG9M0BRppm+2j4EwHYA7z+Z06++W6t5vz/2f7/lOBhA/eujPp0+/7+6gZU/
lpc_rms=-39.63
pitch_keycenter=d#6
sample=Soloviolin1_pizzicato_PP_D#6_RR1.opus
</region>

<region>
hikey=f4
hivel=127
lokey=e4
lovel=0
lpc=XLvDQbW1S8LZPCRCo1CZwb3k6kCYlqrAT/WWQBKKR8BwCEk/x4KjQDTiDMG0XFtA4pRzQOuO3cBcVli++/pFQRGug8FzAUJBjxxowBg6lEDJwc3AJk6lPlN6sj8FxLk+
lpc_rms=-42.47
offset=9761
pitch_keycenter=f4
sample=Soloviolin1_pizzicato_PP_F4_RR1.opus
</region>

<region>
hikey=f5
hivel=127
lokey=e5
lovel=0
lpc=lYVIQUkr5MHec9VBsi17wVVyFEHcEbrAHHA6P7p7PED/3FfAr9mDQJSnxsCJtDJAdpeAQGpAlMBZPE1AgQKJwPshMkB7gT9AZR7uwL3N+0BQ3GvAYtdMP6pKxr9nkoQ/
lpc_rms=-46.75
pitch_keycenter=f5
sample=Soloviolin1_pizzicato_PP_F5_RR1.opus
</region>

<region>
hikey=f6
hivel=127
lokey=e6
lovel=0
lpc=aB6hQO0DFME9Iu1A2CMkwGUQar/nG7k/GviVv72F2j+TyQvAHTWGP1Z3lrtl/Dq/lc3wPwGmE8AjgCpAog/bv3iBJD/clhXAAgdsQBfR3b9hkCe/YtYOQPGXBsDUAzc/
lpc_rms=-54.41
offset=11286
pitch_keycenter=f6
sample=Soloviolin1_pizzicato_PP_F6_RR1.opus
</region>

<region>
hivel=127
key=g3
lovel=0
lpc=JFH1QCYaXMGnPtpA2cdnPnghXT7VFZm/PSLMPju+tr5diVG8wFurPXMXFz2zDds9G5QpPbiRTD2KxfQ+PTnRvjJw3b58fwq9cWMgPzEPSz5PFbO+ENS8vp3oTz5Uh3s+
lpc_rms=-60.51
offset=13393
sample=Soloviolin1_pizzicato_PP_G3_RR1.opus
</region>

<region>
hikey=g4
hivel=127
lokey=f#4
lovel=0
lpc=JtXPQVeCZcK1x0xCBJq1wWLvyECsRa7AdjsEQX+YP8HYVhFBgahhwKoIwz9OC07A30vxQDj4QcENfAhBXakdQPbFBcGG0bVAJHiev+/Jnj69oBhAGDKQwEKxmEBwD+6/
lpc_rms=-42.68
pitch_keycenter=g4
sample=Soloviolin1_pizzicato_PP_G4_RR1.opus
</region>

<region>
hikey=g5
hivel=127
lokey=f#5
lovel=0
lpc=FAn/QMfcg8ESC3xB6bY4weFp3kBONPK/JLSXv/QkpD0AfzlA+y8+wEpDU0DPX3LAfz/rP9o+/L53sqC9hkWHPwS5yL8GMFi+AL8eQIhUN8Aih4lAQYA2wDfqnb5JeBE/
lpc_rms=-46.03
pitch_keycenter=g5
sample=Soloviolin1_pizzicato_PP_G5_RR1.opus
</region>

<region>
hikey=g6
hivel=127
lokey=f#6
lovel=0
lpc=Lp6nQH6AGcEwjstAwmqLv7uuC765RXM/0UbJvyEDwT53nCW/+yQEQDUIyL8mYFo/8SeCvQsEw7/z1u8/QHfMv2zipT9Gl6a+7BR/vo8fwL780rU/KeC7v4cGkT/H3W6+
lpc_rms=-40.44
offset=6892
pitch_keycenter=g6
sample=Soloviolin1_pizzicato_PP_G6_RR1.opus
</region>
</group>

<group>
group_label=RR1_85-127
lpc_hicc1=127
lpc_locc1=85
seq_length=4
seq_position=1

<region>
hikey=a3
hivel=127
lokey=g#3
lovel=0
lpc=zD0OQriAt8KTlb1CLq9ewjHHsUHMcdPAZM/BP3KtdED+jpDBSHsNQuXCBcKADG9BacDJwO7vy0CmKH/AvdCjQGC++MBd3cZAQzz6vgJviz70uYq/Ph+iwNm1uEC7b66/
lpc_rms=-31.28
offset=2582
pitch_keycenter=a3
sample=Soloviolin1_pizzicato_FF_A3_RR1.opus
</region>

<region>
hikey=a4
hivel=127
lokey=g#4
lovel=0
lpc=yTmvQYzxXML6B2ZCxicCwiHp40BvP90/JSARQCVmob+OCBvBlWXGQT/T98FrQbtBWcg2wUc/kb5akRZBDzRDwQ+6QEFyw0TBD7pNQd0b+8CxLMg/sWK5v4utwD6Lu5Q/
lpc_rms=-20.87
pitch_keycenter=a4
sample=Soloviolin1_pizzicato_FF_A4_RR1.opus
</region>

<region>
hikey=a5
hivel=127
lokey=g#5
lovel=0
lpc=1KjXQD4wWMEaqUFB4PLAwJXPqT9uVEU+TyKXv+X3MUBRPgTAkxSUPxzn47/vsodAjgyxwJrsRkBzIZC/7BWdP+k5Dz+PL1nAm/ajQHUpP8DAbp0+E9GBv76oDUA2rrC/
lpc_rms=-21.85
pitch_keycenter=a5
sample=Soloviolin1_pizzicato_FF_A5_RR1.opus
</region>

<region>
hikey=a6
hivel=127
lokey=g#6
lovel=0
lpc=JW7HQA5iJMGARr5AlHgJwNauFkAwgYW/hHIGPz6HH8DSAy9AA2UAvqNB5b6QE7q+p37ePQ3oFj9uAonAWnTMQPATV8Asy0g/Hzftvt/Wij5jSE2/2akyQN/2QcBcBpc/
lpc_rms=-15.53
pitch_keycenter=a6
sample=Soloviolin1_pizzicato_FF_A6_RR1.opus
</region>

<region>
hikey=b3
hivel=127
lokey=a#3
lovel=0
lpc=p0vjQWuxV8IiWsFBXn1/QTVmosHzydK/dcYkQbc5VkB6B0vBe0LvQAeyCMDwqKQ/BRT2v3fHzD+VoyxA9KnowK4rpEA6iolADeMGwV4P2UDbm/K/wAaHv0sr+rssiU8+
lpc_rms=-21.16
offset=167
pitch_keycenter=b3
sample=Soloviolin1_pizzicato_FF_B3_RR1.opus
</region>

<region>
hikey=b4
hivel=127
lokey=a#4
lovel=0
lpc=+Fb1QTkwqcKyStVCc5ujwlIfJEILt7vB95XOQSjUq8FMVw9ByHkRQXWcx8HtXeZBVl6xwdiSAkG4PiBAGjWFv5Vlk8DXsj1Bq/opwUVJtECWODzBN0aKQSEXYcEhusdA
lpc_rms=-22.94
pitch_keycenter=b4
sample=Soloviolin1_pizzicato_FF_B4_RR1.opus
</region>

<region>
hikey=b5
hivel=127
lokey=a#5
lovel=0
lpc=MzLYQCKzScFoUhNBNWeJwKK8g0A2Z6zAx7yUQAk8GcD6/6w/ALuiP8i6ncBDhppAf3RGwLCPYkDm153A+H23QGVlh8COPBFAvlF+vwd+AL+VKOw/wOkHwO0iSz9NjEe+
lpc_rms=-24.61
pitch_keycenter=b5
sample=Soloviolin1_pizzicato_FF_B5_RR1.opus
</region>

<region>
hikey=E7
hivel=127
lokey=a#6
lovel=0
lpc=nQ2mQILGCMG7drNA57Xjv6ND5z/d5TLA8jkWQBV/vr/qwAhApafOvw8EGb/SRy5ACiSEwBPOjz/rkyFAa30CwDqc/D6e2HW/B/QHQCD71r94I6U/ccIKwPpkEkCNi1y/
lpc_rms=-18.14
pitch_keycenter=B6
sample=Soloviolin1_pizzicato_FF_B6_RR1.opus
</region>

<region>
hikey=c#4
hivel=127
lokey=c4
lovel=0
lpc=mr1BQiPPyMJRTIdCeGnEwLFRj8Hngd++e+hXQfIp878eOAXBUf1BQfK8P8H8VDZBhdWJwMjgKsEGTq9BG7mSwQreH0HRfybBKMqKQWrdgcFgv5tATfE3wNj6rz+8LhlA
lpc_rms=-16.64
pitch_keycenter=c#4
sample=Soloviolin1_pizzicato_FF_C#4_RR1.opus
</region>

<region>
hikey=c#5
hivel=127
lokey=c5
lovel=0
lpc=EYauQW7HScJozEpCymADwpRLgkFyQUDB0E+QQVzXicGyB/dAWIQ1QK5JnMAvdV6/UND8vyqJFkGU7PDAXW5DvgzuAEG9AyDBwHamQFZN0D/n9Z2/UpjJwFBAGkGJKnzA
lpc_rms=-20.14
pitch_keycenter=c#5
sample=Soloviolin1_pizzicato_FF_C#5_RR1.opus
</region>

<region>
hikey=c#6
hivel=127
lokey=c6
lovel=0
lpc=i9PPQCYqScG7aTtBacgGwXJYwEAsdqPAJ/aLQOW5WsAN8hlAACkwv9NM8rw8bpw/tavzv3S40z8NZHW/akNQvqByij+eEtu/hxf4PwVY6L/8OkJAa17GwO8XsUCtIMu/
lpc_rms=-22.74
pitch_keycenter=c#6
sample=Soloviolin1_pizzicato_FF_C#6_RR1.opus
</region>

<region>
hikey=d#4
hivel=127
lokey=d4
lovel=0
lpc=fFtCQJKnB8Cm2IS/4LZeP9YPuL42B+W+6z8MPv+WqDy7okC/BuieP3q7Nj775be/3kLsPuR/Az9iMa++bUKyPmnN6D24TWm9gBIHvhovIz5KIQ4+AezUvlIDqj7Y7ZC9
lpc_rms=-23.72
offset=361
pitch_keycenter=d#4
sample=Soloviolin1_pizzicato_FF_D#4_RR1.opus
</region>

<region>
hikey=d#5
hivel=127
lokey=d5
lovel=0
lpc=oipFQf6J/cHTFRhC9lLfweRaUEF0kNPADP0GQXrY5MBkodi+/SERQaT3TMGpmx5BIwjQwKGLtkAhdYnAHWI/QEH1KcCAu3g/PCSAQOdj0sAFXKJAE28kwLqyrD9NBQq/
lpc_rms=-27.27
pitch_keycenter=d#5
sample=Soloviolin1_pizzicato_FF_D#5_RR1.opus
</region>

<region>
hikey=d#6
hivel=127
lokey=d6
lovel=0
lpc=MOr6QJZvRcFiGwxBr9mbwCsnaECg2V3A24koQN7iHsBqh01AkGICwO8p5T/30ai/IBL9Prha8j0cQl4/d6/1v57B/z9XbPu/3aaDQMK0BMHeQMFA/pkWvz3Rrb/ZLZI/
lpc_rms=-16.77
pitch_keycenter=d#6
sample=Soloviolin1_pizzicato_FF_D#6_RR1.opus
</region>

<region>
hikey=f4
hivel=127
lokey=e4
lovel=0
lpc=6MouQY3AisHxltRA0hGAQKZ+AMEuTmdAUoscQHPv5r8RGobA3iIXQdGK5MBPFhu/TAqCQPJEUcB3ZF8/87S+P0krqL3Pt6O/9VkXQFphCMDN6IU/TvQlvopG578dJ88/
lpc_rms=-21.56
pitch_keycenter=f4
sample=Soloviolin1_pizzicato_FF_F4_RR1.opus
</region>

<region>
hikey=f5
hivel=127
lokey=e5
lovel=0
lpc=iAozQewKxMFp08NBRM9dwVLhfkAYenTA9ZgKQdw0KMFQxMZAEYcFPR1c87/oBma9z5cqP+hvaL/0jRxAYLLOv4EeqT6TyFo/xoeZP828C8ArypU/9WYKwIqIGECO2Iu/
lpc_rms=-24.73
pitch_keycenter=f5
sample=Soloviolin1_pizzicato_FF_F5_RR1.opus
</region>

<region>
hikey=f6
hivel=127
lokey=e6
lovel=0
lpc=3Aq0QIaGFcFY28xAO1YVwM0X8D2q82++8XlyP0MORz56kuC+Queovl+YXT/XA2K/BgY+P9oPOL5FsqE9WkeHP11/XMDOyLk/ZPQJQPStScCwBBJAiK+jvrcqTL4DLTq8
lpc_rms=-19.43
offset=1158
pitch_keycenter=f6
sample=Soloviolin1_pizzicato_FF_F6_RR1.opus
</region>

<region>
hivel=127
key=g3
lovel=0
lpc=7rpLQVZkucHj1FhBta/+v9optL8fDYg+yHpUPttsGT8DtVg/NKELwDJEfr3f8WhAVv+WwOkoHECG3ru/vw4tQE4pXcCcQ4VAsR9Iv6SYGsCo6aU/qC2Nv3ni2T6vgFg/
lpc_rms=-24.21
offset=354
sample=Soloviolin1_pizzicato_FF_G3_RR1.opus
</region>

<region>
hikey=g4
hivel=127
lokey=f#4
lovel=0
lpc=lDHQQTSBcMKuRV1CApy7wehop8ChYQ5B2LnZQF4kgsEvIpBBpQ1owcnmE0Aofg9B+AA+wY/UtkAV4y5AGFvrwM1h/kAumCfARSVJwLD7jkAHZ7e/qgSQv/cfTj8EpHk+
lpc_rms=-20.68
pitch_keycenter=g4
sample=Soloviolin1_pizzicato_FF_G4_RR1.opus
</region>

<region>
hikey=g5
hivel=127
lokey=f#5
lovel=0
lpc=2nT0QDDVkMHNLaVBzPmEwf8TRkGgJyfBcJoMQaKy4sBZa8hAZ0OWwFw1h0D64I7A6IeiQDsQ6cAYoApBUdnQwA/0PUAkYxrAaH2bQFuakMBh4RZAHCyCvroEf7+hRQI/
lpc_rms=-28.05
pitch_keycenter=g5
sample=Soloviolin1_pizzicato_FF_G5_RR1.opus
</region>

<region>
hikey=g6
hivel=127
lokey=f#6
lovel=0
lpc=ivbhQDN6RMGpNBtBYF+owEkI3z8ovVk+k4TyvgceAEBm6RvAhpPjP+CQS7+P8lA+GNC8vQqc1j6MeQo/cHmKwGxDaUDDymk/rf9swNR9p0BQ5ovArPhEQFQdK8BTtKg/
lpc_rms=-17.29
pitch_keycenter=g6
sample=Soloviolin1_pizzicato_FF_G6_RR1.opus
</region>
</group>

<group>
group_label=RR1_43-84
lpc_hicc1=84
lpc_locc1=43
seq_length=4
seq_position=1

<region>
hikey=a3
hivel=127
lokey=g#3
lovel=0
lpc=0EuRQUR7MsIdN0BCBLwAworNT0F8JCjAS6KvPweCBMDbGxRAIEHfP2eiP8GGpYxBqktswZvszUB6gRFAA0VbwOArYz9lV4Q/wozRv5w6K0BgbxbAjprov0gFo0Dmxy/A
lpc_rms=-31.92
offset=8553
pitch_keycenter=a3
sample=Soloviolin1_pizzicato_MF_A3_RR1.opus
</region>

<region>
hikey=a4
hivel=127
lokey=g#4
lovel=0
lpc=44kMQo1AysKvx/tC+Vq1whonL0JJ0bbBPAXhQSSYH8KOgx9CsPzPwZNVyEA9YBhBmO8pweeNLsAyoVFBggBCwZuirkDMpgZBYd+owSTgokG0Ju7A20ErwOvQ5D/GNkU/
lpc_rms=-24.31
pitch_keycenter=a4
sample=Soloviolin1_pizzicato_MF_A4_RR1.opus
</region>

<region>
hikey=a5
hivel=127
lokey=g#5
lovel=0
lpc=K71EQdeG58H4pu9B666TwafsIEHcCcrAmBUUQOngOz+cwVu/YIvyvgfKB0AD8wfAIZM5P/QWjD7qRZo+TkTCv83wPkDnU/6/FUzJv1arj0CyRJ3AsP7VP1ssQUCixj3A
lpc_rms=-23.74
pitch_keycenter=a5
sample=Soloviolin1_pizzicato_MF_A5_RR1.opus
</region>

<region>
hikey=a6
hivel=127
lokey=g#6
lovel=0
lpc=BAMaQT/uqcHLh61BF748wTeVmUBoxjPAReeDPyHQyD+XJNi/oYeCPlLmvD5pgAC/GlyMQAyVLMHVaxJBpu3+vuDMocCUV5tAC68dwEhRET8b+RY/ZwEHvvFLPT6ti6K+
lpc_rms=-22.86
pitch_keycenter=a6
sample=Soloviolin1_pizzicato_MF_A6_RR1.opus
</region>

<region>
hikey=b3
hivel=127
lokey=a#3
lovel=0
lpc=bXCYQqYNRsNgdEtDpS0Aw+F7iUIwADnCGyslQryKNsFfkarB9m3FQScejMEi4qVB1NIRwW0+isH+0wRCEXLnwd97VUHYWwLA2tFuwdtnuUFOrry/SzqTwcgmPkEzary/
lpc_rms=-28.51
pitch_keycenter=b3
sample=Soloviolin1_pizzicato_MF_B3_RR1.opus
</region>

<region>
hikey=b4
hivel=127
lokey=a#4
lovel=0
lpc=d+/6Qc/Pj8Lo32dC4q+UwcYwh0CUSnvBexLUQT/nlcGbf/ZAxGAzwOldTD9tKPY/p1rzPdRhj8AyTFNAlFMgv9btxj1Rc9O/yOqWQH6/GMF4qWxBQPEzwVtzwj5+AkNA
lpc_rms=-31.05
pitch_keycenter=b4
sample=Soloviolin1_pizzicato_MF_B4_RR1.opus
</region>

<region>
hikey=b5
hivel=127
lokey=a#5
lovel=0
lpc=Zg8ZQU6XtcH07spB0lCZwW/iPkEJGOfAf19DQFSRMkDUv/nA4rkEQWZDicAz+qo/zyUHwPQSREC1FYc/kd7twIM9I0EzcgnB7y69QPavjcD/tSZALJYBQDxas8BMqDJA
lpc_rms=-29.28
pitch_keycenter=b5
sample=Soloviolin1_pizzicato_MF_B5_RR1.opus
</region>

<region>
hikey=E7
hivel=127
lokey=a#6
lovel=0
lpc=vzC8QEZDTsFmE1FBTsPIwD+4Kj822GC/yIeAQJurkcC3XgVAQRQHvZtfML7wbRW/0Ho/v6vjLEARqxHAuO+Mvcx8Yj8uyP8/CKatwPTyuEAdLj3ArlqdP+ciX79V7Kk+
lpc_rms=-29.31
pitch_keycenter=B6
sample=Soloviolin1_pizzicato_MF_B6_RR1.opus
</region>

<region>
hikey=c#4
hivel=127
lokey=c4
lovel=0
lpc=NPezQrnMhMMCcJ1DEgxAwzFzXULDxvE/P7Q0wcYjjkERR8XAvqsYwtfXXELLELPBEyYHQXPDwsGt5gJCLyOqwV6EpkA7+qTAF8i+QaDAGsJ4eAdClcJXweOX38A6adxA
lpc_rms=-19.30
pitch_keycenter=c#4
sample=Soloviolin1_pizzicato_MF_C#4_RR1.opus
</region>

<region>
hikey=c#5
hivel=127
lokey=c5
lovel=0
lpc=VjTjQbhklMJzPa9CZEJ8wkZK5EHjkBzBmDJ/QQyv28HIr7dBG0g+wQjSEz8EzRBBrefEwM3RkEDfZhPBgNw0QXy5mcBImPLAgYd7QX6ABMEfJQfBw56dQSzvn8HszhRB
lpc_rms=-25.74
pitch_keycenter=c#5
sample=Soloviolin1_pizzicato_MF_C#5_RR1.opus
</region>

<region>
hikey=c#6
hivel=127
lokey=c6
lovel=0
lpc=5R4aQcalj8GQA0RB/iPUwPlJBUFnWgLBl1eyQOj02cBgvftAt6aiwFIOJ0AJ/hi/7oZEP2ViRMD/tY9A4Ro6wEcOxz/yfTnAKFVwQHTeJsBJxyRAmLCywEHDj0DSTvi+
lpc_rms=-28.12
pitch_keycenter=c#6
sample=Soloviolin1_pizzicato_MF_C#6_RR1.opus
</region>

<region>
hikey=d#4
hivel=127
lokey=d4
lovel=0
lpc=mp6aQQcVQcJmZU5CIR4HwhJ7mEHmwITBvuGEQRHATcHHmxNBOmgEwawHi0C/2MQ/gQAgwMzkz74/0xNAtLFQP+n0g8BW3RpAcoi7v9TgCz/7U6xAp/cMwXbkvEAsRsa/
lpc_rms=-33.99
pitch_keycenter=d#4
sample=Soloviolin1_pizzicato_MF_D#4_RR1.opus
</region>

<region>
hikey=d#5
hivel=127
lokey=d5
lovel=0
lpc=Rc6WQemLQMLSvVFCPWMPwgWapUE58YjBfG25QSy8wcHux4ZBwLb3wGvC40Crdo3BSJC+QfxaW8E0qAw/TMc1v3XACEFdCDrBdhoFQQVx4L80vcY+9CymwLuFtEAVMqO/
lpc_rms=-31.08
pitch_keycenter=d#5
sample=Soloviolin1_pizzicato_MF_D#5_RR1.opus
</region>

<region>
hikey=d#6
hivel=127
lokey=d6
lovel=0
lpc=LwwgQZjyn8G2EHZBEiDIwA4kSUC6dh/AxMrwvtNyJkDOmfw+8lE3wGHgbD/fwsM/qjGTvjmzRr89HAzAsWeNQH602L+D9ou+ISaAvZD1osAo9CdBCfwQwRSTk0DAKGu/
lpc_rms=-25.24
pitch_keycenter=d#6
sample=Soloviolin1_pizzicato_MF_D#6_RR1.opus
</region>

<region>
hikey=f4
hivel=127
lokey=e4
lovel=0
lpc=Ii7YQT/ChcJuO4ZCGf8hwrvlnkE7w1jBxFBPQZGSP8FbljNB12WYwPGOCb8N1trAtTB4QchmZMGU0lpB1w1RwZD4T0FTw2HBWaYdQcT0jMDyy18+mxdTQA3ltsANbl9A
lpc_rms=-27.66
pitch_keycenter=f4
sample=Soloviolin1_pizzicato_MF_F4_RR1.opus
</region>

<region>
hikey=f5
hivel=127
lokey=e5
lovel=0
lpc=0JUwQd/u58GQZRNCdwgBwvRVv0FFFZbBlzWIQdsKgcH6pkRBdabuwNYjykCbGu3AYjD1QK3m88BPvQlByIkMwak/I0H9XkPB+T8yQU3hqMAhiJO/TqRyQEr3N8Aio0s/
lpc_rms=-30.24
pitch_keycenter=f5
sample=Soloviolin1_pizzicato_MF_F5_RR1.opus
</region>

<region>
hikey=f6
hivel=127
lokey=e6
lovel=0
lpc=zXzaQGhxcMFEd2lBdH4JwbE2bUCsNgPAMSPHP9n/wj8FbX7ANe0KQG3Dij/k29i/oFwVP+/v1L4qaQhAieAHwKdk/b4zSW0+hZvcP8vdz7+S376+mfVMQOtHZsBcjrc/
lpc_rms=-28.33
pitch_keycenter=f6
sample=Soloviolin1_pizzicato_MF_F6_RR1.opus
</region>

<region>
hivel=127
key=g3
lovel=0
lpc=YQybQWwwKcLVLhhCzDCiwUClgUAOlbk/gZXyPT8oHMCcjSpAajoqv7IuLr+jDPE/hvygv8lO1L5yijE/a1VPP/pUDz8EdwnAc4FGvjFg6j9lRQJAov4CwaPC/0DL8CLA
lpc_rms=-47.15
offset=7354
sample=Soloviolin1_pizzicato_MF_G3_RR1.opus
</region>

<region>
hikey=g4
hivel=127
lokey=f#4
lovel=0
lpc=dtQnQvhp1sLifvhCd5vDwvDFekKtsi/CnlAZQtn9AsLiJtZBkD2lwWaWWkE8SQTBIwRdQJyKzUDsEjPBGQ0JQVRtIsCZ8sO/dTQ0wASHKEGOK3LBXxCCQe2aWMEJI8BA
lpc_rms=-21.87
pitch_keycenter=g4
sample=Soloviolin1_pizzicato_MF_G4_RR1.opus
</region>

<region>
hikey=g5
hivel=127
lokey=f#5
lovel=0
lpc=zyMRQT5MosGK/5pBlpguwTVpFUBV1WxAvL+iwEA1lz+jhHhAMNp0wBvvzD8NFBc/Ay/gv5uFBb/gmy9Al6oQwChpTD9eioG/7ng+QO9hbsCFV7JAZy7NwH2ub0BCaom/
lpc_rms=-28.22
pitch_keycenter=g5
sample=Soloviolin1_pizzicato_MF_G5_RR1.opus
</region>

<region>
hikey=g6
hivel=127
lokey=f#6
lovel=0
lpc=Y+m6QBc2N8FvmApB3cIMwJqDBb/SPE2/EDuRQA+B28CTzo5A0LMIv6JxeL8f/g0/o0roP+cVTMA69ChAn7yhwHU720BJ1W3AFioqP5GlLL8nJOA/N3AowEhlOkBmsaO/
lpc_rms=-25.91
pitch_keycenter=g6
sample=Soloviolin1_pizzicato_MF_G6_RR1.opus
</region>
</group>

<group>
group_label=RR2_0-42
lpc_hicc1=42
lpc_locc1=0
seq_length=4
seq_position=2

<region>
hikey=a3
hivel=127
lokey=g#3
lovel=0
lpc=wJ0gQZg3isEQQxZBKi3zvxwrkL7Swv09zrsbPyb6jL/qbvE+ezSKP0U2Y77y1Xm/ufdEPrerDr+vWcs+IEkcvgka+D54s/K+livXPdouND+NCoA/T86lv07nZz4cWwq8
lpc_rms=-57.69
offset=10659
pitch_keycenter=a3
sample=Soloviolin1_pizzicato_PP_A3_RR2.opus
</region>

<region>
hikey=a4
hivel=127
lokey=g#4
lovel=0
lpc=wSu9Qb6tZsI54WBCSTL9wQ0DUEEQrc3A+XsQQX35SMEqICFBiko5v8uEE8FceShBAdn4v+pZjr94NrLAousiQbPk5MBX+8I/QsFgQBqP9sBOwTVBPQElwWsJyj/PCxVA
lpc_rms=-38.71
offset=17
pitch_keycenter=a4
sample=Soloviolin1_pizzicato_PP_A4_RR2.opus
</region>

<region>
hikey=a5
hivel=127
lokey=g#5
lovel=0
lpc=c8IJQRkTkMHZfVBBaLZNwFp0zj9aNgLAIcaov21V6j9AzytAa2aEwOaolj8HjHG/ENEKQM8m+L3wLLi/3BnUv2grlUAISwTASMLXvjl7bb5Gfcu+05eqP4PGHD9gRq+/
lpc_rms=-34.01
pitch_keycenter=a5
sample=Soloviolin1_pizzicato_PP_A5_RR2.opus
</region>

<region>
hikey=a6
hivel=127
lokey=g#6
lovel=0
lpc=mvvRQCooTMGODx9BzhkpwH6JDECX+NnA/JTwQEriVcCgZpY/I7zsv2OT7z3JdQRArzVpPpY+n8AfeH1AcviNP/5ISsD9wEc+HjNPQG3WDsCpnTK/jukCQJ6wY79DKCI+
lpc_rms=-38.69
offset=8657
pitch_keycenter=a6
sample=Soloviolin1_pizzicato_PP_A6_RR2.opus
</region>

<region>
hikey=b3
hivel=127
lokey=a#3
lovel=0
lpc=B4GgQc9iKsJiDPJBie3JwNpzPr/4IDLAwLnhP3JQLj+XBGG+31q6PZfZkr+E9EA/Lm2cP+svx79oMR0/12VCP+pX1b85d/Q/ktOfvsV3yT0XJI8+wThMwD6nhEAt5uK/
lpc_rms=-49.41
offset=3666
pitch_keycenter=b3
sample=Soloviolin1_pizzicato_PP_B3_RR2.opus
</region>

<region>
hikey=b4
hivel=127
lokey=a#4
lovel=0
lpc=Ll5zQUQyBsIRTu5BaK+AwSdVBkH6mtHAYmOXQEzVgMBb2lVAsTrYP/UAYMDlnm0/p8ICQAcUcMAARK5AODl3wLbjZr2Gn5Y/+Eo3wF4En0AXzELAw2i6PoEUvr/FVf4/
lpc_rms=-47.00
pitch_keycenter=b4
sample=Soloviolin1_pizzicato_PP_B4_RR2.opus
</region>

<region>
hikey=b5
hivel=127
lokey=a#5
lovel=0
lpc=YRHeQEVec8G9xmhBSmoEwSeUXkDX8QS/93HXv/xuXz/JA74/dAQRwKMA9D/dody/Bch+P7+wqr/D1YlAnYjOwMDItEDtuGbArkbbP90Tiz8jwUjAVHGYQNxRncAAEvU/
lpc_rms=-48.30
offset=3112
pitch_keycenter=b5
sample=Soloviolin1_pizzicato_PP_B5_RR2.opus
</region>

<region>
hikey=E7
hivel=127
lokey=a#6
lovel=0
lpc=xVGjQLaQF8Ep+gNBXkR3wI2mvj4944Y/sbRev4r0NT80Hk++YaUFv7YqCT97sc69jwA9wGCRl0C/sjLAvsYwvSD0qT+KOJK/ozwgP5Xg4b5Oux8/fiN/vm8kYz4icD++
lpc_rms=-39.39
pitch_keycenter=B6
sample=Soloviolin1_pizzicato_PP_B6_RR2.opus
</region>

<region>
hikey=c#4
hivel=127
lokey=c4
lovel=0
lpc=J7JxQoEcFsOAjhJD88eCwiVRE0G8mDXBrjyHQVYQGcF61QhBjM7qwJ7508BILAJBRYagQN6UfcDyH7TA3v4yQbZ0j8AekmTATiKIQB16C76Z5gA+s/UXwGTp07+YxSxA
lpc_rms=-35.27
offset=84
pitch_keycenter=c#4
sample=Soloviolin1_pizzicato_PP_C#4_RR2.opus
</region>

<region>
hikey=c#5
hivel=127
lokey=c5
lovel=0
lpc=a74DQQ8xpMGRza9BQOBEwXBbhUC/lXbA40K6QKqXp8CJ2f4/NuPpPxQmisAlDnhAqYiPPojio8BtdvZANeyowFvgdb4kEipAOOhsv5w5ZL9V//++NJdXQN67hsAfIgVA
lpc_rms=-49.31
pitch_keycenter=c#5
sample=Soloviolin1_pizzicato_PP_C#5_RR2.opus
</region>

<region>
hikey=c#6
hivel=127
lokey=c6
lovel=0
lpc=gh+/QHtMNcEXVyJBreb8wCGJskC5Ow/AjoQwvzkpjz/z5II/4p8WwI7wPj/sg2A9yvwDQGq3XMB3GFJAoZ9CwIKtRkD7+OC/F938Pqrp2L4sh8w+nW2Nv4rW2j6u5C8/
lpc_rms=-49.08
offset=2407
pitch_keycenter=c#6
sample=Soloviolin1_pizzicato_PP_C#6_RR2.opus
</region>

<region>
hikey=d#4
hivel=127
lokey=d4
lovel=0
lpc=Sk4ZQQl2n8H/koZBJsniwP3HSz8Pqio+6rhNP8yC67/qry1APX8KwItQdL4BAMA//uatvsn7n78vSpk/q2KvPvujBcDw9yFAKaSKvxl5N7+zBJ4+ESkJP5Kk9L92swZA
lpc_rms=-54.61
offset=5064
pitch_keycenter=d#4
sample=Soloviolin1_pizzicato_PP_D#4_RR2.opus
</region>

<region>
hikey=d#5
hivel=127
lokey=d5
lovel=0
lpc=KzBHQZIYAsLS9xJCbni0wWlsy0AsZzg/mp6Cv4NLyrqqOdO/ouTUQIF6IMHvQQJBReEWwO1wor/jpCU9heUuQC1OZ8AEWABACq0QvTfTCMDty4VArrCewA8ihkBdGK2/
lpc_rms=-40.60
offset=1183
pitch_keycenter=d#5
sample=Soloviolin1_pizzicato_PP_D#5_RR2.opus
</region>

<region>
hikey=d#6
hivel=127
lokey=d6
lovel=0
lpc=12mKQAq86sAo75pAOqBwvwp/rr+s6bY/hRMCvwTp4r+gqylAzokuvjFJdL9Zn98+x2xcvh/OCT+aare+RuwUvahLTD3RAX+/LzwKQGMyU8AUsVRAytHHv1yZDj7f3ak+
lpc_rms=-50.58
offset=1265
pitch_keycenter=d#6
sample=Soloviolin1_pizzicato_PP_D#6_RR2.opus
</region>

<region>
hikey=f4
hivel=127
lokey=e4
lovel=0
lpc=vBuWQWEXGsJZ+P1BtkSNwXjUHkEw/jjB839KQWEh68AkOAu/TViqQO7aTcDNQRs/Pr2+PmDopz/Of4/AomG/QDoO38A8bi5BSUw0wUxYyUB6+Us+JiyMwF2QnT9p2Z0/
lpc_rms=-41.95
pitch_keycenter=f4
sample=Soloviolin1_pizzicato_PP_F4_RR2.opus
</region>

<region>
hikey=f5
hivel=127
lokey=e5
lovel=0
lpc=KA4QQeNKm8Ff25BBs+4kwXnVUkBii4O/FPslQLEJccChMxRAb2kjPybhVsC+nrw/AU4tQGwOOcAYTKY+lvXLP4fUHcCUPkxA7dSQwJ7ryUAv75LAxVBUQJsSS8C6PpA/
lpc_rms=-46.58
pitch_keycenter=f5
sample=Soloviolin1_pizzicato_PP_F5_RR2.opus
</region>

<region>
hikey=f6
hivel=127
lokey=e6
lovel=0
lpc=0jeDQA+l58DDFMFAinx0wLs4O0AwhUXAk2DqPzT3Hz84XX6/7FXXPqoCCL+KPUA/YHWNPlZ2iL8LxYY/1P2gvicNxD5xsCnAG7RAQKacqr/UFys+2+rbPgW5yb0adxu+
lpc_rms=-56.56
offset=13464
pitch_keycenter=f6
sample=Soloviolin1_pizzicato_PP_F6_RR2.opus
</region>

<region>
hivel=127
key=g3
lovel=0
lpc=jEPhQOQwVcH5GwJB9e6Jvxgr27zgRqO+DYlcPlnr875TTYI+6zjRvoWmtb4LaP8+Yt7/Pjqckr54hQO/EHOQPotHIj42VE6+XtYYvadesz7Gi9o+fPbHvtDn3D5trvy+
lpc_rms=-60.19
offset=11394
sample=Soloviolin1_pizzicato_PP_G3_RR2.opus
</region>

<region>
hikey=g4
hivel=127
lokey=f#4
lovel=0
lpc=JBaZQTUPLMK1PBxCWxWDwaCyuj/T7b6/IlvfQKULGMFc96FAH2LAP8nwk8BYcNw/8YFiQLIYmcD7UsM9BxwvQIDSnb+P+1y+ANClv3cVf0CCt8G+gptowDgzZEAZ2nm/
lpc_rms=-46.64
pitch_keycenter=g4
sample=Soloviolin1_pizzicato_PP_G4_RR2.opus
</region>

<region>
hikey=g5
hivel=127
lokey=f#5
lovel=0
lpc=A6kGQeIzi8H2EoRBcpZGwT+e+UBRfYPAK7vUP4t8wr9UHY9Auvp7wMQXpD+VaX+/kF92P3C0Ir87OoW8jvL0vj9mjj958T2/NP+eP4TKAsDANRpAVBAuP/A9J8AMIlg/
lpc_rms=-48.65
offset=6122
pitch_keycenter=g5
sample=Soloviolin1_pizzicato_PP_G5_RR2.opus
</region>

<region>
hikey=g6
hivel=127
lokey=f#6
lovel=0
lpc=ooWhQCXlGcFKnABB3EOXwNMXeEBFMwbA3ISRPF8KVL88+p4/dLWLP/TlWsCqbnhAwv1hwAekEkAX/vu9/WEfwMFfHkC216q/y1GPPwLzgb8ih0g/1U9hv7uWcj9MZEi+
lpc_rms=-46.42
pitch_keycenter=g6
sample=Soloviolin1_pizzicato_PP_G6_RR2.opus
</region>
</group>

<group>
group_label=RR2_85-127
lpc_hicc1=127
lpc_locc1=85
seq_length=4
seq_position=2

<region>
hikey=a3
hivel=127
lokey=g#3
lovel=0
lpc=y9hOQFafQMAQXs2+3Ge0PwJLab8/kSe/NegYPpCgzT6zQM6+5C0NP+ck3L1KnYI+6BkTv6IKt74JdZ4/Zd+Nv7Hjhz6DT2U/qRjOvoD7iL6PWbU++d/Lvcjyvr17xJ48
lpc_rms=-23.95
offset=190
pitch_keycenter=a3
sample=Soloviolin1_pizzicato_FF_A3_RR2.opus
</region>

<region>
hikey=a4
hivel=127
lokey=g#4
lovel=0
lpc=e8jiQb7djcJpoZNCgFYUwt4Vk8BF66FBMwqVwAgJgMFLoaRBa3YNwdkq6MD8WT5B6Lg9wDarIMHkqoZB8o9QwWtWFkHBvITByyjJQUlnn8HO4QVBDkveP6vG2MABX3pA
lpc_rms=-16.99
pitch_keycenter=a4
sample=Soloviolin1_pizzicato_FF_A4_RR2.opus
</region>

<region>
hikey=a5
hivel=127
lokey=g#5
lovel=0
lpc=pW/PQLmVS8EgcEJBmVkBwYEEckAwu/2/sSt2P+A/MD2cMTC+NcctQK4SicBgbnhAjr+MwJ/+h0AM6xLAMMuLvzbZfUBQqIXAvnqwQNbgwcD6O55AYLKVwKLvTkA2W5C/
lpc_rms=-22.69
pitch_keycenter=a5
sample=Soloviolin1_pizzicato_FF_A5_RR2.opus
</region>

<region>
hikey=a6
hivel=127
lokey=g#6
lovel=0
lpc=N17AQAgxCsHjFThAGe0ePwVSCD9aeLU+RZCgvgmQnb9+qu89+bkLQNzxwL/x39I+0DyuPoStsr8mQ+6/v/Z/QLw/I7+wO5u/HOFiPlsl0D1oAgK/Q9jdP1VRub+a66Q+
lpc_rms=-15.77
pitch_keycenter=a6
sample=Soloviolin1_pizzicato_FF_A6_RR2.opus
</region>

<region>
hikey=b3
hivel=127
lokey=a#3
lovel=0
lpc=L3bdQZrCUsKt+dNBgAuZQGOdqcBLMiDBgl4tQVYYxT9I8EjAllawPbcr3sBWlkxBdbQcwW9jfkBbNQVABeFzwBJSCD8b2kpATiQWv6AEJ78TYOa/mCXmP4x77r8xa5o/
lpc_rms=-21.19
pitch_keycenter=b3
sample=Soloviolin1_pizzicato_FF_B3_RR2.opus
</region>

<region>
hikey=b4
hivel=127
lokey=a#4
lovel=0
lpc=0kZRQdWD0MHt2MdBgJ6pwds9aEEA6wHBRZKJQH8plD/+anPACyqwQH7zvsAVBrBAU7bmwPK2r0D4YTjATXAcQDLchj+BPyTA21tkQHjR/7+7G7u/xBw/v8wvCD+cyNE/
lpc_rms=-20.57
pitch_keycenter=b4
sample=Soloviolin1_pizzicato_FF_B4_RR2.opus
</region>

<region>
hikey=b5
hivel=127
lokey=a#5
lovel=0
lpc=4Ji5QJegIsEkbuRA67STwFPtoUA3kKPAb+iaQCWZcMCEJhhA1Fyxv3U40j8cHAfA4OKZP1zflr8H1v4/LOQZv2b4tz7wJu6/+nMSQLxm6L+fmM4//yfXv5zJdD/h48y+
lpc_rms=-23.58
pitch_keycenter=b5
sample=Soloviolin1_pizzicato_FF_B5_RR2.opus
</region>

<region>
hikey=E7
hivel=127
lokey=a#6
lovel=0
lpc=87iEQJIv08C+a6dAn3QtwLUF3T9DLtG/tonEP41wh78zDcQ/B9DMv5ZwsT9CfGK/Uq/SvzM8EUAMjGG/HmQuvkTf7T6yF0C9h56KPdWhQ76R1zU+0jPIPPYmhb4pu6M+
lpc_rms=-18.76
pitch_keycenter=B6
sample=Soloviolin1_pizzicato_FF_B6_RR2.opus
</region>

<region>
hikey=c#4
hivel=127
lokey=c4
lovel=0
lpc=c/IpQtTVqcKsMWxCXcUkwWggkMFd1DFBWU2+P8o+gb8QjPi+P6GTQE8kEsHXNvZAWf9AQPhxhcGeordBxzJ5wd9m5UDr+bPA1eoZQeEcM8EruGhA8cidPkmrZ8D48pFA
lpc_rms=-16.32
pitch_keycenter=c#4
sample=Soloviolin1_pizzicato_FF_C#4_RR2.opus
</region>

<region>
hikey=c#5
hivel=127
lokey=c5
lovel=0
lpc=xGmSQQWPI8IuKh1CBZy7way3KkG9nQzBi49vQfYDecHTDq5A/rrTQAKJI8Fd/u5AxRDHwJ6Bz0C0uoHAOeWAPy0V/L5GaB8+t6PzP9jYdb8s8JY/8UeWwC7Nx0DkFSPA
lpc_rms=-18.48
pitch_keycenter=c#5
sample=Soloviolin1_pizzicato_FF_C#5_RR2.opus
</region>

<region>
hikey=c#6
hivel=127
lokey=c6
lovel=0
lpc=Kko/QYIDqsGdiHNBQkXVwLOvhD82gZO/l42iQEgoycD4d4ZAqb0fP7dbIcDOAtE/luGTvvjFCT5Eb56/lmcBQAuRdb6yx2XAyebCQDXLhMBa3AtAX7qvwODNjEDzLY48
lpc_rms=-19.65
pitch_keycenter=c#6
sample=Soloviolin1_pizzicato_FF_C#6_RR2.opus
</region>

<region>
hikey=d#4
hivel=127
lokey=d4
lovel=0
lpc=HgjAQNfXB8EruEBA+ksHP90w5L0JDBvA2bETQCzehr08Jx3ADCo7QGZEBb8s1BTAi/3bPxMV+D5yhRO/YLJMvsZdfz/xeds+iWy7v81/Zj9Ruia/HiHbPn76Br9ER/w+
lpc_rms=-26.14
pitch_keycenter=d#4
sample=Soloviolin1_pizzicato_FF_D#4_RR2.opus
</region>

<region>
hikey=d#5
hivel=127
lokey=d5
lovel=0
lpc=F/MxQdPAx8Gw1LpBiHFUwRwR1UB997LAfUjPQBrDgcDvDcQ70GkLQLDOy7+NiV4/o08fwFfxjUAbS2XAwRa6PiJSN0B5nqnAtcrNQJl2dL9nc6fA9XeTQBdf3b8XwBo/
lpc_rms=-26.42
pitch_keycenter=d#5
sample=Soloviolin1_pizzicato_FF_D#5_RR2.opus
</region>

<region>
hikey=d#6
hivel=127
lokey=d6
lovel=0
lpc=/WCnQK+3DsGQ+uJA6r+SwCo7PUDtLD7AFSlKQL+STsBFGyJAW4Uiv5wnE7+G0EM/3PNwvs7tnL2M4pA+7sSNvuRiZD6cKbG+ub7fP47KpcCysY9AzM6kv95RBL734i4/
lpc_rms=-27.07
offset=611
pitch_keycenter=d#6
sample=Soloviolin1_pizzicato_FF_D#6_RR2.opus
</region>

<region>
hikey=f4
hivel=127
lokey=e4
lovel=0
lpc=xyo8QZWXl8HQ5NNAi47IQI4oAsE0H3G/5e4GQZJyh8ACueDAg2Q9Qci5rMBTO1bAebaJQGMW8728KW3ADpCAQPAxDL6pkOO/uN8vQPlQAsDOh0E/KEvkPYwZxr+AmZY/
lpc_rms=-20.18
pitch_keycenter=f4
sample=Soloviolin1_pizzicato_FF_F4_RR2.opus
</region>

<region>
hikey=f5
hivel=127
lokey=e5
lovel=0
lpc=JB8OQbhggsERGUNBgmSBwDOKab9+TUK+oQ6UQBf87cClzahA6BR9vzsWTsB/SoxAfcwywHq+RD7nNEhA3ywpwFnINj+2fv++MfctQIEVFsC6jxNA1N2DwHzkVUChZrW/
lpc_rms=-25.13
pitch_keycenter=f5
sample=Soloviolin1_pizzicato_FF_F5_RR2.opus
</region>

<region>
hikey=f6
hivel=127
lokey=e6
lovel=0
lpc=qcSbQN5SD8EvNPJALPqCwJYgIUCXnEbAnhogQOVA5Lwry82/7nEzQJi9VcCfoFJA7RMkwNCs7T82HJ+/DROCP7FPob0DVCHAc+IjQKWGNr4TnqO/FO0xPx+1WD9NIRm/
lpc_rms=-19.22
pitch_keycenter=f6
sample=Soloviolin1_pizzicato_FF_F6_RR2.opus
</region>

<region>
hivel=127
key=g3
lovel=0
lpc=hiJVQtt1GcPD8SRDhHx2wonq+cHjEfBBbzegQfo9BcKGQSpBeHQ4Qb9b6MGKlwhCozOTwfrIT75e2DzA5XyPQevfl8G3ADFB+5NlwNGZUMDXk/hAWXEiwfFr1kBtMIi/
lpc_rms=-28.01
offset=177
sample=Soloviolin1_pizzicato_FF_G3_RR2.opus
</region>

<region>
hikey=g4
hivel=127
lokey=f#4
lovel=0
lpc=LpSlQcVLPcLcuiZCLi46wWNRVcFIBUlBmL3EQMeRgsEN5sFAydwdQTDgXcHkutdAJCNOQGOp7cCIJr4/2JGPQDYIm8CTpjxADb+uP7THSMBAwpc/CIS3P8LWz7/2PiU/
lpc_rms=-16.87
pitch_keycenter=g4
sample=Soloviolin1_pizzicato_FF_G4_RR2.opus
</region>

<region>
hikey=g5
hivel=127
lokey=f#5
lovel=0
lpc=WkPwQGBYfsG44V1BnhLewLlHMkC/Huy/vr0tQPYpGsDiKI8/wa8TPoU9kr8GHEpAsS+SwGmHOEC8+Vy/NXanP9suAsCM1pw/hgnBPp1wgD8apUbAXKnuP64WSj9xr1S/
lpc_rms=-24.78
offset=841
pitch_keycenter=g5
sample=Soloviolin1_pizzicato_FF_G5_RR2.opus
</region>

<region>
hikey=g6
hivel=127
lokey=f#6
lovel=0
lpc=VIb/QPa6W8HTSxlBxSdxwH50gb5RogJAcYbEPocdmb8QzUo+Oxs8Pzhtr78WNtY/OQKov6A/ST+sn3I/zPWPwLbxF0A2xkhA6feawPTmlEDzLQ7AQJ2qvj3O7r1uvDE/
lpc_rms=-15.69
pitch_keycenter=g6
sample=Soloviolin1_pizzicato_FF_G6_RR2.opus
</region>
</group>

<group>
group_label=RR2_43-84
lpc_hicc1=84
lpc_locc1=43
seq_length=4
seq_position=2

<region>
hikey=a3
hivel=127
lokey=g#3
lovel=0
lpc=GqDkQT0RlcKWBKJChv5Swpimy0GudnzB6nCLQUJ1YcErvSJBxqwcwRWKmj+28BRBGQJmwdnya0ESduzAqDtIv6U0nUDBQpi/ivQKwQLeKEEryNO+I+fSwLSsnECgjr6/
lpc_rms=-35.35
pitch_keycenter=a3
sample=Soloviolin1_pizzicato_MF_A3_RR2.opus
</region>

<region>
hikey=a4
hivel=127
lokey=g#4
lovel=0
lpc=FpwbQnGg4MK+ow9DdR7cwndMbUJdKN3BZq+EQc1AusHB6QNC9h7gwYp1P0ESr7c/KFKNwJ7Wub8/PzJBzHGpwZia5EHHl7PBzhYrQXep+8C4X9VAB03fP4deC8HYp6pA
lpc_rms=-21.30
pitch_keycenter=a4
sample=Soloviolin1_pizzicato_MF_A4_RR2.opus
</region>

<region>
hikey=a5
hivel=127
lokey=g#5
lovel=0
lpc=Gih1QRqPFMJuehVCQjrGwWGBk0Fjk0DBWV0fQDbiJ0D2d67AVxNdQcWbp8HuUZ1BrRKJwTXfYUEhY8PA0zgGwJlUxkCGvf7AKydcQTVznsEaGIFBIF/6wPvae0AVpAjA
lpc_rms=-28.83
pitch_keycenter=a5
sample=Soloviolin1_pizzicato_MF_A5_RR2.opus
</region>

<region>
hikey=a6
hivel=127
lokey=g#6
lovel=0
lpc=YkcVQav8pcECsKRBfwgwwVgQ1kC3+BbBCKQrQSlcAcFWM61AZYFvwN9x2z/j/4S+qnozQOU+6cBXSpRAHC8kQIb5osAw0kdATB7gvxZ7L0BGuWzAD/1sQNtZvb8iVU6+
lpc_rms=-23.76
pitch_keycenter=a6
sample=Soloviolin1_pizzicato_MF_A6_RR2.opus
</region>

<region>
hikey=b3
hivel=127
lokey=a#3
lovel=0
lpc=dAiYQmzFLsN1xgpD+ft9wt29HkKrNhTC3OEVQm6nCcI1ChhClogjwai1FsL6julBGKjwQQEJacKpjTtCGOf5weGRUEHSOqG+nHujvzEtHMDZHv0/3cc9QY+jtsEIlTZB
lpc_rms=-28.62
pitch_keycenter=b3
sample=Soloviolin1_pizzicato_MF_B3_RR2.opus
</region>

<region>
hikey=b4
hivel=127
lokey=a#4
lovel=0
lpc=Ds8FQk/+k8Ka2HFCr0DHwfa6HkDiw+u/omaDQVFUdcGVQ1JA3avcQCBmGsGLcxFAvnNDPymRRUDFzmvATVrJPy43y0DSPQXB5eSUP9jsq76e8KNAdl8uwQPN9EDWHtc8
lpc_rms=-30.98
pitch_keycenter=b4
sample=Soloviolin1_pizzicato_MF_B4_RR2.opus
</region>

<region>
hikey=b5
hivel=127
lokey=a#5
lovel=0
lpc=51hAQR8r18GhKOBBabiQwaVQy0BjlU8/5uhmv5zPScAmy8RANSq8wAdkdED50/w+o1aLwLOLt0CmfEjApjSav4glX0A7wH3A9c01QIw2Uz+7JcLAwXQlQZdBF8HytkFA
lpc_rms=-24.84
pitch_keycenter=b5
sample=Soloviolin1_pizzicato_MF_B5_RR2.opus
</region>

<region>
hikey=E7
hivel=127
lokey=a#6
lovel=0
lpc=apiLQMF77sC6EKNA4KI/vwrDqr9ewD0/x9BfPwOApr+swmA/Lfh3v7nGPD/TJxu9AxLLv9DEA0D1AIC/ShuBvbTqeL4a8sk/MHXSv6aMmj/dla2/u4PzP773nL8ldF4+
lpc_rms=-34.13
pitch_keycenter=B6
sample=Soloviolin1_pizzicato_MF_B6_RR2.opus
</region>

<region>
hikey=c#4
hivel=127
lokey=c4
lovel=0
lpc=gPOHQuqfNcOEjlBDVLQWwwM7uEJt+Y3CztxCQqgdv8HzJo5BJZ6HwTCrAUEf54/AILsCQrKNP8JzqQ1CnG/JweWMsEHRNsvAh3h+wdOCfkEVuq3ADfJsPwu6rsBJ36ZA
lpc_rms=-20.42
pitch_keycenter=c#4
sample=Soloviolin1_pizzicato_MF_C#4_RR2.opus
</region>

<region>
hikey=c#5
hivel=127
lokey=c5
lovel=0
lpc=o9+uQYHjXMKFcnVCAEAVwulQDkFo1wNAI+t6QIP2SMGI8iVBMzNKQASigcG672ZBd5IWP8PWzMAGCBM/9rOOQBKqgr00hhfBB5eBQbuhkMHqalpBHUf9v7Vf3sDoCZhA
lpc_rms=-26.64
pitch_keycenter=c#5
sample=Soloviolin1_pizzicato_MF_C#5_RR2.opus
</region>

<region>
hikey=c#6
hivel=127
lokey=c6
lovel=0
lpc=gWkOQbxlmcEzDpJBuaM5wYS7AkGA0QLBlDMOQV8ADMEOn/xA3bbMwDJpPEDoqRVAsCmKwFhsjUDJKaLAKLarQJmfmMBI75dAzRyhwKXXnUCd5m3AuGQwviqdsz/QJEw9
lpc_rms=-27.42
pitch_keycenter=c#6
sample=Soloviolin1_pizzicato_MF_C#6_RR2.opus
</region>

<region>
hikey=d#4
hivel=127
lokey=d4
lovel=0
lpc=XNnlQRqOnsKdCb9C6eWNwhw6KkLsIA/Cx8gSQmNN6sFE7pdBj3NPwSBurECv4+1ASCZUwdrWFEEZrdq+C6PXv82ZcsCmecpAVlsMwQcaQkE/EUbB/V0BQUIlEsCSeaY9
lpc_rms=-30.71
pitch_keycenter=d#4
sample=Soloviolin1_pizzicato_MF_D#4_RR2.opus
</region>

<region>
hikey=d#5
hivel=127
lokey=d5
lovel=0
lpc=QSBcQRf3EMKNYStC+DMHwn9LskH/ZFXBArkmQTJBI8GVCCZBEihZwaDodkFZxkzBp6MKQXIl9L+JYue/UMsBwJfmBkGYOlrB8/1rQc+XP8HNtRZB9TCrwAzCYz8pYRA/
lpc_rms=-28.83
pitch_keycenter=d#5
sample=Soloviolin1_pizzicato_MF_D#5_RR2.opus
</region>

<region>
hikey=d#6
hivel=127
lokey=d6
lovel=0
lpc=/8wzQYEQvcFwDKRB/hNHwfmWDEG2DArBEU3kQNxbN8AuBIxAdmz5wA8NlED8Uoc/qmkcwAmQBj6IoA8/KJAwQCvPhMBXBIJAVzPUwOZmXkBc2EZAVYebwBzcfEDQJra/
lpc_rms=-32.48
pitch_keycenter=d#6
sample=Soloviolin1_pizzicato_MF_D#6_RR2.opus
</region>

<region>
hikey=f4
hivel=127
lokey=e4
lovel=0
lpc=yFfoQU7JjcJ/h55CwF9ywq/IIUIdjRnCk+UzQsnCSsJwLk9C+pAowgl63kHyt4TB+t1LQevWDMEhoahAzhtYwKv6GkCJPqq/u47Qv+kdOsBz7gRB93C6wJ/LUj4H3ANA
lpc_rms=-27.47
pitch_keycenter=f4
sample=Soloviolin1_pizzicato_MF_F4_RR2.opus
</region>

<region>
hikey=f5
hivel=127
lokey=e5
lovel=0
lpc=7+9HQSmp/cG/MRxCBdIFwuq8s0ExAWjBlZsJQbKhy78/G7vAt44wQfcyRME3OkVBOswPwXE6ij/UGApBFjt0we/KiUEaJozB7bt8QaubLcFvYLRA5YzPv2UsrT6ke9S+
lpc_rms=-30.42
pitch_keycenter=f5
sample=Soloviolin1_pizzicato_MF_F5_RR2.opus
</region>

<region>
hikey=f6
hivel=127
lokey=e6
lovel=0
lpc=FKXaQD0kaMEw70ZBir2jwHBLjz/ExsO/iK3oP0Lrsz8a+V7AjOqIP8OGAUAstd+/uUqIPqIrGr8vwzhAiZJtwKOSJkAWzIXA7UjHQH9so8A59vg/7fffP/BZOcCyUaQ/
lpc_rms=-28.05
pitch_keycenter=f6
sample=Soloviolin1_pizzicato_MF_F6_RR2.opus
</region>

<region>
hivel=127
key=g3
lovel=0
lpc=YXH6Qby5j8KOF3BCf2u2wVjdWcB/Jx5BP8yzv5GkpcDI4ApBV+GWwDKFA8BLdrQ/eDMZPyxssT+lSVq/IUKSP27nQcBikJY+6UBNvyroOL9AjolAm+yawJhd4ECO/nbA
lpc_rms=-41.74
offset=8469
sample=Soloviolin1_pizzicato_MF_G3_RR2.opus
</region>

<region>
hikey=g4
hivel=127
lokey=f#4
lovel=0
lpc=Z/gfQk5OysJB99xC5CODwujjWkHDe8S/j60wQQGOq78UrLjBcX0ZQoHx3sGlU8xAUkLmvqz4t0BJLpDAh+8Dwe0c+0EAfDzCP5gqQrnUzsGRETVBhSLFwPLxFUDMs4s/
lpc_rms=-20.91
pitch_keycenter=g4
sample=Soloviolin1_pizzicato_MF_G4_RR2.opus
</region>

<region>
hikey=g5
hivel=127
lokey=f#5
lovel=0
lpc=wmMMQWhQnsE+DpZBhBwlwW4zuEDoL7vAUoqFQO9ugb97ukQ/L9mZvxA0kD4AH+U/svHqv/5gY77xIje/7NKWQBqjzsAkY15AbVg+P/Pmrr5rxKu/gYuSP6nyqr4ABja+
lpc_rms=-27.06
pitch_keycenter=g5
sample=Soloviolin1_pizzicato_MF_G5_RR2.opus
</region>

<region>
hikey=g6
hivel=127
lokey=f#6
lovel=0
lpc=g7qaQOnLDsGIBdhASQspwCuVtD/8G5C/Rk+XP64Dir+7JPA+2U7FvhMPBz9B7gU/DeGZv85p5j/m3wHAj6MCvxIDEEA61qK/VGaaP+hqEsAnhCBAuhzsvxQrnD98+aS+
lpc_rms=-27.67
pitch_keycenter=g6
sample=Soloviolin1_pizzicato_MF_G6_RR2.opus
</region>
</group>

<group>
group_label=RR3_0-42
lpc_hicc1=42
lpc_locc1=0
seq_length=4
seq_position=3

<region>
hikey=a3
hivel=127
lokey=g#3
lovel=0
lpc=dixTQRK8yMF1VndBbh0UwHifHr+6cQ2+HRZ+P/aIuL8ivCC9vVUcP/UyjD7Efhu/h5TSvRBYMb+Pk3Q/w+2rPrMaib4znc26qFg3PXegHT6c9MU8rYuLv+JMHECLWIa/
lpc_rms=-54.41
offset=11746
pitch_keycenter=a3
sample=Soloviolin1_pizzicato_PP_A3_RR3.opus
</region>

<region>
hikey=a4
hivel=127
lokey=g#4
lovel=0
lpc=dXhOQXXX88Ew/NZBiCcUwW+UbL9cZyhASzMRwFokOr+HLQ9AFOycP8lmXMCEExm+LQlnQG55IcAs6Lk/u6T8v1kuAEAt4gvAUU0sQNQeCr+VjY+/+isdPQR3xD7gqrc9
lpc_rms=-49.95
offset=672
pitch_keycenter=a4
sample=Soloviolin1_pizzicato_PP_A4_RR3.opus
</region>

<region>
hikey=a5
hivel=127
lokey=g#5
lovel=0
lpc=zGTuQP8wb8ER1UNBfQzgwL/bk0CoRTjABhYKQKSBBsC1pjFARD88wL7Qn72pdB4/p9gWQEHcPsA1iQxAAe/Bv7EvO7+IwOc/aUbTPQ6zmr+AOtY/O8SQv+Azjz6QOkG+
lpc_rms=-47.46
offset=1481
pitch_keycenter=a5
sample=Soloviolin1_pizzicato_PP_A5_RR3.opus
</region>

<region>
hikey=a6
hivel=127
lokey=g#6
lovel=0
lpc=DBaiQJ46CMGjcaNAb9kCvtSETD8GKCrAdD/pP9nQ2L/FlGBAVA1NwGMupb4fipM/CqqKP8iNIcAGRYI/688ZvkcMI77v1Qs/BzNYvv+hxjwHsiS86S60Ph0LNbwnJxI+
lpc_rms=-49.11
pitch_keycenter=a6
sample=Soloviolin1_pizzicato_PP_A6_RR3.opus
</region>

<region>
hikey=b3
hivel=127
lokey=a#3
lovel=0
lpc=ngVWQSmE68FR5MtBeGY1wVThI0CwQN++ZOSpPx7FD8Ct7ZI/TxDxvulvH8BC+SlAAJTyP9mZ6791uBy//biBPvRNgj47Wf88I7tAv9bCmT/GYwI+eL6YPv81w7+DNGY/
lpc_rms=-51.18
offset=12161
pitch_keycenter=b3
sample=Soloviolin1_pizzicato_PP_B3_RR3.opus
</region>

<region>
hikey=b4
hivel=127
lokey=a#4
lovel=0
lpc=4j5OQf17+cHNtgFCcduvwfj1fUE+/nLBtX4mQWctk8B8+2tAkFsev1vEzcBhwyBBKvjRwD0JkEA5uc7AAOUKQRwSHsE9kBFBZ+XTwF+3hEAeo4fAo0XFQBru0sBgX1BA
lpc_rms=-39.23
offset=423
pitch_keycenter=b4
sample=Soloviolin1_pizzicato_PP_B4_RR3.opus
</region>

<region>
hikey=b5
hivel=127
lokey=a#5
lovel=0
lpc=KTXNQBqqUcHcpC5BNHySwH6flD+Q/ou++3GSPrzv778zb78/AkvtP8jDh8DAr19AO0Pyv5ZlWr4NYyJAniPov9L4Fb8RCRw/s3SYP6OgiL9BMqA9uScBQATYVcBb3bo/
lpc_rms=-40.55
pitch_keycenter=b5
sample=Soloviolin1_pizzicato_PP_B5_RR3.opus
</region>

<region>
hikey=E7
hivel=127
lokey=a#6
lovel=0
lpc=i162QPolMcGJtx1BTYKEwP08Mr5Mihs/4cGeP8AqIMA+jDtADH0RwJtXA7scH/U/wO1nwHFGPkALlOy+YLy+v9qVnj8QfaM+mQlFvyqraT7aLCg/Wv8bvz7MoD42COi9
lpc_rms=-50.57
pitch_keycenter=B6
sample=Soloviolin1_pizzicato_PP_B6_RR3.opus
</region>

<region>
hikey=c#4
hivel=127
lokey=c4
lovel=0
lpc=iCiFQtixIcMNYh1DaxW5wje6T0LOWg/ChC6wQQ8pp8HdmaFBSCiKwNShjsHLMMJBN99dwQulKkG8hirBDnpQQAn+iUFvJt7BXLLSQE3GqUEanK/Bz9pBQb1QN8H488RA
lpc_rms=-32.99
pitch_keycenter=c#4
sample=Soloviolin1_pizzicato_PP_C#4_RR3.opus
</region>

<region>
hikey=c#5
hivel=127
lokey=c5
lovel=0
lpc=ijwbQa21rsE3a6FB/1EtwQxP1EDuitjAci6VQEIGN8Am6BdArqXAPwfrrcACPVhAGp7TP85hW8BUiz5Aclm+v7whW78I0jpAL+p6wEuZg0BzVIbAyJV2QKs7QcAbBs0/
lpc_rms=-49.26
offset=13705
pitch_keycenter=c#5
sample=Soloviolin1_pizzicato_PP_C#5_RR3.opus
</region>

<region>
hikey=c#6
hivel=127
lokey=c6
lovel=0
lpc=B8fiQBCRTcGsIehAnas6P8bNQMBIKvs+GOoNQGw99b/hu5w9u3QMP3piLL4y9wrACFy8QEk9tcDe0ERAIq3+v1qO9T85BKm/DQhHP5+Vrb7HqWs/aN1JwFj/BEAcO78+
lpc_rms=-46.65
pitch_keycenter=c#6
sample=Soloviolin1_pizzicato_PP_C#6_RR3.opus
</region>

<region>
hikey=d#4
hivel=127
lokey=d4
lovel=0
lpc=1Bl5Qcc9AMKlBtBBVoM/wSKqUkDCHla/+b59PyGV279bieU/XZPGv/Mpur0XAvk+LX37vdELJbx8dlA/OYKpPs5uhL98y9C+fDVhP+P/Cz9vOHg/7j4wwNshoD5ROY4/
lpc_rms=-50.40
offset=11740
pitch_keycenter=d#4
sample=Soloviolin1_pizzicato_PP_D#4_RR3.opus
</region>

<region>
hikey=d#5
hivel=127
lokey=d5
lovel=0
lpc=EekvQQmr1cHj39ZBUPNvwVLr4UBWYrLAsDe1QPxvAMGGDz5BBKI7wQkBy0AuTw3APD5fQKNEv8CWBgBBLhwBwcizR0BY2yhA102TwFBWKEDpJ4A/wXtSwMZKOkBU8i+/
lpc_rms=-40.12
pitch_keycenter=d#5
sample=Soloviolin1_pizzicato_PP_D#5_RR3.opus
</region>

<region>
hikey=d#6
hivel=127
lokey=d6
lovel=0
lpc=Zk+sQM9hC8FhonBAt0vcP9e7H8A2B9u+EmkaQE0gCMBgWoY/uW9GPvRd/z6Rpjm/mF7mvnHv8T66wlI/iCawv2SGZj+FCIW+fLNJP4kLccDgWI1AQMwkv92C/78Fb7E/
lpc_rms=-38.25
offset=1199
pitch_keycenter=d#6
sample=Soloviolin1_pizzicato_PP_D#6_RR3.opus
</region>

<region>
hikey=f4
hivel=127
lokey=e4
lovel=0
lpc=kbGBQZ87D8KZTu1BkkcjwToOSL8llvc/+FRWviOpHcCebII/Xj7NP/pia79r9DE+i7buPrwqEsB3XUZA9Zatv2OVbT9jFLS/TezXvbu6AUDhX4O//PYcPjFFT7/EBCM/
lpc_rms=-49.19
offset=535
pitch_keycenter=f4
sample=Soloviolin1_pizzicato_PP_F4_RR3.opus
</region>

<region>
hikey=f5
hivel=127
lokey=e5
lovel=0
lpc=sk8tQdc3wsEp8LZBxZ1ZwWuk1kBi2IPAtAFHQL9ROsBJ8WVAeeW/vSiQucBJhqdANL8svJUUiMD/K5tAdXwewIG07T544bo/4AAwv6pqp78cjLc+CHBJQJyehcCwr80/
lpc_rms=-47.84
offset=908
pitch_keycenter=f5
sample=Soloviolin1_pizzicato_PP_F5_RR3.opus
</region>

<region>
hikey=f6
hivel=127
lokey=e6
lovel=0
lpc=uVqtQAVkGsExp7hAFSWTv5KRaj8OE2q/YJOjvo11HEB32HLA+gAuQBppub/JTYk/sKVMP5mKQMD72otA+ah7wCJO5T+4XTXAc6mKQF6ex7/W3le/qjInP5imJL/aaQw/
lpc_rms=-53.21
offset=11565
pitch_keycenter=f6
sample=Soloviolin1_pizzicato_PP_F6_RR3.opus
</region>

<region>
hivel=127
key=g3
lovel=0
lpc=m7RhQV2N88Ef87tBGEOswOV4PMDzqkI9+XJLQIOSMcBin20/r59dPvw3fL+6pEU/OkBPP5B5Ob+Esl0/UYgjv0rLyL4ozhA/9sQoPzYIyb/9ToA/wbUgPbK5tr/TtKs/
lpc_rms=-51.94
offset=14179
sample=Soloviolin1_pizzicato_PP_G3_RR3.opus
</region>

<region>
hikey=g4
hivel=127
lokey=f#4
lovel=0
lpc=6ooFQoidpsIPi6RCMwA1wuqSl0Gq1yzBYTB2QTQkvcFeQatBw9UAwVQyPsDhuCU//flCQQtEYsHf98A9UNcuQWu8PMF+JDBBDehZwQlfOEFM8fu/utiwv5kQ5b9iM/w/
lpc_rms=-37.48
pitch_keycenter=g4
sample=Soloviolin1_pizzicato_PP_G4_RR3.opus
</region>

<region>
hikey=g5
hivel=127
lokey=f#5
lovel=0
lpc=gd8QQSIojMFny0xBslXJwOn0jj9T6GNAhId3wOqd3T51KJFAlcKwwL4JekDsTz3A23dbPhbOjz9HtjQ/NQI7wH8Xk0BbTqHA9HBlQGhzBsDpHwVAHzRcP0SQO8CHynE/
lpc_rms=-47.58
offset=14908
pitch_keycenter=g5
sample=Soloviolin1_pizzicato_PP_G5_RR3.opus
</region>

<region>
hikey=g6
hivel=127
lokey=f#6
lovel=0
lpc=IYGjQGX/EMGvXsdAxLEswMWAIkA83ZC/FyOgPaS6AMBVKTxAl5Wwv1vON7+OtNY/VnJXv07iD7/R4NY/Fj5cwLFRJUCWxie/lsSSPyjj1L98S48/wfHxv9vwI0D7wmu/
lpc_rms=-39.61
pitch_keycenter=g6
sample=Soloviolin1_pizzicato_PP_G6_RR3.opus
</region>
</group>

<group>
group_label=RR3_85-127
lpc_hicc1=127
lpc_locc1=85
seq_length=4
seq_position=3

<region>
hikey=a3
hivel=127
lokey=g#3
lovel=0
lpc=rI+WQVjDF8L/3qVByJjtQCQlgcHbfJNAkHYHQa7tAsFmII0/rqy+QGd5BMHgCglALiuLQEGzw8AEaE5A7+XCP03Z578dWpY/r748vyGu1T8PrE/AxlqLPyOaBT9o3DC9
lpc_rms=-28.48
offset=414
pitch_keycenter=a3
sample=Soloviolin1_pizzicato_FF_A3_RR3.opus
</region>

<region>
hikey=a4
hivel=127
lokey=g#4
lovel=0
lpc=//AFQqLwu8LOFuVCad6Qwi8D50DmWLdBHsV2PyidBMLH0dFBWXhpQQTNOML0IQhCsZvLQHE48sFibpRBzx+WQOB04sDtmx3BRoOmQRsBHsE+ev7Aw5GDQQksZMHLUrlA
lpc_rms=-17.94
pitch_keycenter=a4
sample=Soloviolin1_pizzicato_FF_A4_RR3.opus
</region>

<region>
hikey=a5
hivel=127
lokey=g#5
lovel=0
lpc=9CzDQEchQsE0GihB6zWbwH0olz+Xs1S/OS9+P+DodrvyI8e91Vl4PjjbDb9leFs/fE7tvqydm78UzL0/C5kpPxcc1r/kbxo/f0m2P9+grb84TjI/jKrmv3hoKUBVJMK/
lpc_rms=-19.33
pitch_keycenter=a5
sample=Soloviolin1_pizzicato_FF_A5_RR3.opus
</region>

<region>
hikey=a6
hivel=127
lokey=g#6
lovel=0
lpc=S0fJQKeVMMG3dv9A2yRzwJ4sk0BYvMDA0WyyQNQ7i8APETxAETkzvixce79dZ9E9cIHkPkAgfD0NhVHA95ujQLtiTcChg4w/RqOYv1+vI0DLrTPAIEPtPwLTI7+cOsE9
lpc_rms=-16.43
pitch_keycenter=a6
sample=Soloviolin1_pizzicato_FF_A6_RR3.opus
</region>

<region>
hikey=b3
hivel=127
lokey=a#3
lovel=0
lpc=2L8KQgLcncKRPYBC87h4waQvP8EbPudA/b4GQL+BmTqRKqHAXsjyQCVJX8FIX7BBgxGfwSCUvkDSBldAV9KNv4Xdqr/1bu2/oYEPQQoz4sCI7+m/L0mPQIB28b+ROaI+
lpc_rms=-21.21
pitch_keycenter=b3
sample=Soloviolin1_pizzicato_FF_B3_RR3.opus
</region>

<region>
hikey=b4
hivel=127
lokey=a#4
lovel=0
lpc=zE1AQekQycHLY8NBF2mWwelkTkE0PBXBZNT7QE9Vg8DOECE+Y9I3QCNBhcCNXZpA4c3iwEvstEAL3PO/OvugP/fzlL8IGxVAvPv3vza/5z/h3s6/M7Trv3GeAEDs+b4+
lpc_rms=-19.57
pitch_keycenter=b4
sample=Soloviolin1_pizzicato_FF_B4_RR3.opus
</region>

<region>
hikey=b5
hivel=127
lokey=a#5
lovel=0
lpc=0rDLQFILSMHLxjZBUG3mwJF7jEA7uDzAd+/4P69se7+AY3E/MSSPPvP+C8Av3c8/Nyr5Pt8F4r+MjPE/6Lc/v5xfCz9Ct4K/BNV2P5/Kc79T35M/EsQqvyohXb5uZkS+
lpc_rms=-20.56
pitch_keycenter=b5
sample=Soloviolin1_pizzicato_FF_B5_RR3.opus
</region>

<region>
hikey=E7
hivel=127
lokey=a#6
lovel=0
lpc=F86VQP9uAMF9KsVAhcJSwEngbEAdi6rAPMavQOz7fMDdZmFA6IJcwJVwQEC34wDAa/urvyZAQkA0neO/909CP2navr8CSSZAY4z6vxcLhT8dQaG/ikLQPxvDl79hswg/
lpc_rms=-18.93
pitch_keycenter=B6
sample=Soloviolin1_pizzicato_FF_B6_RR3.opus
</region>

<region>
hikey=c#4
hivel=127
lokey=c4
lovel=0
lpc=boTMQuNresOoWWVDOka4whAbN0CqSRHB4DEbQji3/MFM14NAuxD6QUiQhcJ9lEhCGXrgQe6jj8L5N0tCPmGIwc2v60DanFzBvw6fQdZ0EsFzgvvAeRPYQPJLC8GLJ/xA
lpc_rms=-17.61
pitch_keycenter=c#4
sample=Soloviolin1_pizzicato_FF_C#4_RR3.opus
</region>

<region>
hikey=c#5
hivel=127
lokey=c5
lovel=0
lpc=U9+GQQ4yGcIwUCNCLHX8wf3Yr0GkDpLBMH2PQaDqWMGl6rhADl6XPyOhW8Bk/Z1AQXIawWOITUFrOCPBYqnbQEOwyMA0yYZAIgHwP6aooMBpIZ5A4h+SwJL8VUBMzie/
lpc_rms=-18.15
pitch_keycenter=c#5
sample=Soloviolin1_pizzicato_FF_C#5_RR3.opus
</region>

<region>
hikey=c#6
hivel=127
lokey=c6
lovel=0
lpc=7T8HQZ4agcG9RGBBapgQwdmQrkCu4DzAvd9UPwiHwb7FFoI/NXmDviiirT7PypM+SSgQwGVzeUCVEXDABKlNQCgUCsALVCk+JL5vPxiY1L4NDps+mOhxwGEgh0CqwVi/
lpc_rms=-17.12
pitch_keycenter=c#6
sample=Soloviolin1_pizzicato_FF_C#6_RR3.opus
</region>

<region>
hikey=d#4
hivel=127
lokey=d4
lovel=0
lpc=fuzsQGgAKMHaj1RACcLiP4MP4r8XYsq/KGyuP7gQ6T+Z4pXAjnKUQNfoyb9/i/q/7BwuQCC1k7+SPIw/IP21vx6zsT+WrRi/99Awv28l2T/+842/NzAPvc9lUD6x6rQ9
lpc_rms=-23.75
pitch_keycenter=d#4
sample=Soloviolin1_pizzicato_FF_D#4_RR3.opus
</region>

<region>
hikey=d#5
hivel=127
lokey=d5
lovel=0
lpc=3acZQeT9n8FG8YlBicQNwX9TV0AQxwjAZz8CQPvBJb8AkAw/Nv9jv8a8OT/EIoo84M+2v8HERkA9npTAJSOvQKMCY8ATra2/VLyMQIJSQT9s29DAoUWlQFNgqr9S1jM+
lpc_rms=-27.22
pitch_keycenter=d#5
sample=Soloviolin1_pizzicato_FF_D#5_RR3.opus
</region>

<region>
hikey=d#6
hivel=127
lokey=d6
lovel=0
lpc=mR8FQTFkcsHd+FZB6hoawa+ECkFJRRnB+iQhQWPwLcGmOR5B5bLSwBBfw0ApJ7rAA/J0QCkmA8DBz48/Gxi4P9xJbsCjNpJAdcZ/wDu/3b4JvQ9AAMzfPh47O8AkyBhA
lpc_rms=-16.21
pitch_keycenter=d#6
sample=Soloviolin1_pizzicato_FF_D#6_RR3.opus
</region>

<region>
hikey=f4
hivel=127
lokey=e4
lovel=0
lpc=TvYBQYJQOsFeQiRASPeZQHUqjMBKsQrAuOmMQHXWML4fv4fAlPbDQKuIWMBsxk/Al6yLQM+JGT/K9ozAZCgyQG/VFEB8fx3ApM3Svq8xCkCEpXm/TlaPvy6qmz9qfZ6+
lpc_rms=-21.97
pitch_keycenter=f4
sample=Soloviolin1_pizzicato_FF_F4_RR3.opus
</region>

<region>
hikey=f5
hivel=127
lokey=e5
lovel=0
lpc=0XAQQUtPl8FUNI5Box4LwaTCzL5RDMk/464mQEwqmcCc10VAzPAmv26ZSb9hG5A//TRvvxcOtL+6raBAsP/IwAzK6kATd9bAltPWQEXHqsDNyL4/uEK1PoRSYL7bBES+
lpc_rms=-26.14
pitch_keycenter=f5
sample=Soloviolin1_pizzicato_FF_F5_RR3.opus
</region>

<region>
hikey=f6
hivel=127
lokey=e6
lovel=0
lpc=AiWsQItmF8E0Id5AYbBBwE6Amz8zrpi/1h2gP9w60L/KYzhAWUu4v9RjNr916E0/AlcOPlkuYr3ngKc8j6uLv0zh3z898w/AlGRuP+1/zT84xB7A8obnP3P/477wuSS9
lpc_rms=-18.46
pitch_keycenter=f6
sample=Soloviolin1_pizzicato_FF_F6_RR3.opus
</region>

<region>
hivel=127
key=g3
lovel=0
lpc=yw1DQtn4/cJCzepCc0wdwp4blMAaKgfAyWueQer3i8H+lM0/Z1J4QUgcs8HMyQJBxozIQNWsqcAXP4FAGv8ZwZ0QiEGouYnBrJsOQTKzlcBKB0BB37GpwXT5h0ETopjA
lpc_rms=-25.73
offset=67
sample=Soloviolin1_pizzicato_FF_G3_RR3.opus
</region>

<region>
hikey=g4
hivel=127
lokey=f#4
lovel=0
lpc=Ue+gQbgiOcKz+y9CxtyfwWuZpMCfwlVB+iIuwLLfQ8H2w5dBdsV6wRNA70BaSMU/nATawMPFsED/gDQ/50YYwSNuV0FjdRzBer9RQKAoI0D+wAXAsGY5v/cJsD9qH8e+
lpc_rms=-17.79
pitch_keycenter=g4
sample=Soloviolin1_pizzicato_FF_G4_RR3.opus
</region>

<region>
hikey=g5
hivel=127
lokey=f#5
lovel=0
lpc=7sX+QP9OjcGGnYdBdEMRwRwj+j9LrGs/eZoJv+MyjD9d1lvAyGrQQFbU5cBbrcxARba4wJx+XEAKPeG+pwQ6v0cckT/hGhDARfhnQCzgLcAN2gJARIM6wLcdSEDfKq6/
lpc_rms=-23.63
pitch_keycenter=g5
sample=Soloviolin1_pizzicato_FF_G5_RR3.opus
</region>

<region>
hikey=g6
hivel=127
lokey=f#6
lovel=0
lpc=q9XoQFGWOsEIxuhA4guFwKlse0CbPHnANp3OQNxK48DmiHRAtaMjvsrplr8/NeQ/cT8bwGrwIEBIAYq+CnqfwN/jmUD/7T+/cGOjPgc+q7+oLFhAoEq4wLjBlECOXKy/
lpc_rms=-15.38
pitch_keycenter=g6
sample=Soloviolin1_pizzicato_FF_G6_RR3.opus
</region>
</group>

<group>
group_label=RR3_43-84
lpc_hicc1=84
lpc_locc1=43
seq_length=4
seq_position=3

<region>
hikey=a3
hivel=127
lokey=g#3
lovel=0
lpc=jVTTQRmnf8Ld2mpCPNrBwepShEBpMQfBVm5gQdkmMsGl4BVB2ZwDwZ1azD85YnhAoPwkwK2o975S8LFAwyEgweBpEEHvz3DAnCkqQJCAE8E0IoZBw65rwYyYu0DfGma/
lpc_rms=-36.63
pitch_keycenter=a3
sample=Soloviolin1_pizzicato_MF_A3_RR3.opus
</region>

<region>
hikey=a4
hivel=127
lokey=g#4
lovel=0
lpc=ZLTwQZhxn8KylbJCI+lrwhIi+kG1R6LBOzDjQCvYB0F2UGfBjlNPQa0QGsGb7A9BPWBvwEZhQcDHb3xA9HIvwBQKM0DY8MFAqRWbwWqQj0G/cR3Bgi8gQW3BTsEmoOBA
lpc_rms=-28.19
pitch_keycenter=a4
sample=Soloviolin1_pizzicato_MF_A4_RR3.opus
</region>

<region>
hikey=a5
hivel=127
lokey=g#5
lovel=0
lpc=DvxEQXF+4cEXuN5BF6aIwewqNEFUNfbAy8LPPxU/gT3oIXNAmlSGwN4qML/mJsZA4AQXwXuqEkEebXLAEo9IwM+H80CZ3APB4duvQAb/IL9MrCzAs7dBvrhTrEA5ZoPA
lpc_rms=-25.53
pitch_keycenter=a5
sample=Soloviolin1_pizzicato_MF_A5_RR3.opus
</region>

<region>
hikey=a6
hivel=127
lokey=g#6
lovel=0
lpc=aM8TQa85mMG7hYxBfjH+wJPPPUDEoSzAGKINQM2Jmb85b+I/qiDHv031Ub/vgxlAUqwFQOMTIcG/MiVBAiOAwKhdI74qIhI/Qzm+Po8tyb9NK0ZAvXA6wKXvD0DWd4i/
lpc_rms=-23.42
pitch_keycenter=a6
sample=Soloviolin1_pizzicato_MF_A6_RR3.opus
</region>

<region>
hikey=b3
hivel=127
lokey=a#3
lovel=0
lpc=W2iEQm2lN8MQN0tDdgTZwoZJV0F37ENBWGG5wcdWT0JEm1TCvLACQrbBq8HelbZBhrljwZ81AcBbp15B3/O6wRUCn0ECwzDAwMOQPhLCoMGiPPxBIufFwbE2SEF1A0XA
lpc_rms=-27.64
pitch_keycenter=b3
sample=Soloviolin1_pizzicato_MF_B3_RR3.opus
</region>

<region>
hikey=b4
hivel=127
lokey=a#4
lovel=0
lpc=zv7rQedJmcLGDaVCJCtEwu26f0GHfOQ/BzW0wMml1b9JuDZB+7yFwQu0Z0GYtpfANxXev7sGuUC99e7A4u8DQamvMcEmHBZB+JFxvsmBJcEnw31BFJ9AwQMevT9rKDNA
lpc_rms=-24.01
pitch_keycenter=b4
sample=Soloviolin1_pizzicato_MF_B4_RR3.opus
</region>

<region>
hikey=b5
hivel=127
lokey=a#5
lovel=0
lpc=3MZYQQhl4cHPncRBWblIwfhf7EBm0P7ATG7cQOS0YMB7vfc/daUPwE/IWD6sMJtA6KHZwDKy+0CrsfLAGsRqQGkqnz4Tu7i/e1gzQIBR2MB9CPZAFeiVv4CNoMBtXSdA
lpc_rms=-22.82
pitch_keycenter=b5
sample=Soloviolin1_pizzicato_MF_B5_RR3.opus
</region>

<region>
hikey=E7
hivel=127
lokey=a#6
lovel=0
lpc=eWm2QALsN8ElFjtBWWQBwU3zk0CPjB/A5VTqPx0eIr9prma/h4TtP9F1CcAyKStAq821wL2f8ECWALHAtTUXQGg47b7+oEE+4hj4PfFIer+CJKM/mq0rvjPcsL7Dfze8
lpc_rms=-29.48
pitch_keycenter=B6
sample=Soloviolin1_pizzicato_MF_B6_RR3.opus
</region>

<region>
hikey=c#4
hivel=127
lokey=c4
lovel=0
lpc=Q++CQvj6KMOBQy9DEN7Wwlw4RUIizKLBA90hQAR7gUHKeObBfSgaQjZ5WMIZ229CdGkswmTztUFbbB/AgtA8wDSB88DZCE1BEBxHwasEFkFnroa/rSAuv7nT98CeRsFA
lpc_rms=-18.60
pitch_keycenter=c#4
sample=Soloviolin1_pizzicato_MF_C#4_RR3.opus
</region>

<region>
hikey=c#5
hivel=127
lokey=c5
lovel=0
lpc=nwDFQbvvgcLByaBC1+qAwkfKF0IBXbbBfP6qQXf7kMG+7OtArCLovzDFCEAMBDTAT9j6QBVA9MDi/K4/nzeTQJRyAMGO+MBAJQ2QvdnujMDOXupA90mgwHKcmL+SXBtA
lpc_rms=-24.96
pitch_keycenter=c#5
sample=Soloviolin1_pizzicato_MF_C#5_RR3.opus
</region>

<region>
hikey=c#6
hivel=127
lokey=c6
lovel=0
lpc=pNfgQDNiZMGt1VtBacwawZ05tkDgo17AEu0VQPbwAcDWCyZAU6sjwECUzD/Neas/rMR1wC49oUCrep3ArR5yQJX+9r+y9S6/130nQArxCMA4hY4/OIwrwMWPFUBHauy9
lpc_rms=-27.98
pitch_keycenter=c#6
sample=Soloviolin1_pizzicato_MF_C#6_RR3.opus
</region>

<region>
hikey=d#4
hivel=127
lokey=d4
lovel=0
lpc=JRw2QggE7MK0yOdCSq5jwizftEEENqPBJh4ZQRKtSEFcmpbBVj0GQfWt0r+AYFe/cKSUQT+lD8I4LjFC/xw4wrUSHUIhGOTBUDLxQCDeOUFkYzfBZXxMQMOfAsCzuwJA
lpc_rms=-29.59
pitch_keycenter=d#4
sample=Soloviolin1_pizzicato_MF_D#4_RR3.opus
</region>

<region>
hikey=d#5
hivel=127
lokey=d5
lovel=0
lpc=ldGdQc0rTsKlsV9CdIgTwvFwo0GhnEHBpgogQQXiucAHrZa/9ReQQIwFL8C0s5bAimJRQXNmUMGUAhJBtX8FwRddBkFqecPAlLe/P3hGLcC2yEtBVIx8wQ0c8kDkT0e/
lpc_rms=-30.85
pitch_keycenter=d#5
sample=Soloviolin1_pizzicato_MF_D#5_RR3.opus
</region>

<region>
hikey=d#6
hivel=127
lokey=d6
lovel=0
lpc=FZFWQV/j5ME5rLdBEk0RwZY71z/nSC9AOPCBwKl0v781mDVBXjBkwamp+EAOXSo/vs2uwKNtskCEIGXAcitFQGR9lr+FFTm/ysu0vwdB1r961PJADC6swHe5Ij+wwCU/
lpc_rms=-28.27
pitch_keycenter=d#6
sample=Soloviolin1_pizzicato_MF_D#6_RR3.opus
</region>

<region>
hikey=f4
hivel=127
lokey=e4
lovel=0
lpc=Qi0IQtZOrcKUUsdCUqKPwkXzAEIucD/BM68mQe3AhsF8pp1BROL5wLp+EMFpE6NB9f+uwQmIsEGpi6fBn/qDQXVGUsHtuGRBoE2cwS51ikGNqD3B2rQsQfh0GMEDPJhA
lpc_rms=-27.66
pitch_keycenter=f4
sample=Soloviolin1_pizzicato_MF_F4_RR3.opus
</region>

<region>
hikey=f5
hivel=127
lokey=e5
lovel=0
lpc=D+9RQQ+//cH0sQ5C58TswQ/kuEErNJbBfnBhQSx+EcEGtrFAtU4qwL0C0r+kJlxAlyXYvgvU8D8R9c7A1u0DQeS6AMHfHPxAYkT4wM33k0Afp/U/xDoOwHNbH8BLy/4/
lpc_rms=-30.01
pitch_keycenter=f5
sample=Soloviolin1_pizzicato_MF_F5_RR3.opus
</region>

<region>
hikey=f6
hivel=127
lokey=e6
lovel=0
lpc=zaMAQXi1hMFNFFZBrYK+wK+TPEB8GR3AhF16P6wKFUDF/mHADfbUPwoRvb7HzbM/PZSjv/aavr+P6IVAaC8gwLP5Cb89I2LAYTgHQWsg18B+plJAfKKtv4jGDT9qIMa9
lpc_rms=-28.56
pitch_keycenter=f6
sample=Soloviolin1_pizzicato_MF_F6_RR3.opus
</region>

<region>
hivel=127
key=g3
lovel=0
lpc=MdBbQfUu+ME39ddB8Wgpwc5Ptj6qpkA/HaigvwmtxD8q57Q/PKIfwK3FIj+06Ag/c+6JvsZqFD/mvXK/cz0QvzjHEEDfUcK/YJJSv3kN3j+hExS/WWLcO8BQzr/87dk/
lpc_rms=-49.17
offset=15546
sample=Soloviolin1_pizzicato_MF_G3_RR3.opus
</region>

<region>
hikey=g4
hivel=127
lokey=f#4
lovel=0
lpc=KZs/QnVbBMM7zCBDf/fiwvYLTULqSdTB7yn8QePCB8LBKrhBHl+vwJqZGcFnnINBf3RowWXsAkGoj0jB0wTJQcNRzsGlgFlB4EOAQFkBacHBD1VBLZ/CwEJ7Db8anwdA
lpc_rms=-21.90
pitch_keycenter=g4
sample=Soloviolin1_pizzicato_MF_G4_RR3.opus
</region>

<region>
hikey=g5
hivel=127
lokey=f#5
lovel=0
lpc=DccpQZdjxsEbN8JBnT9mwRM160Bv0V3AQ/a7vJeEHr9bGqxAjc+rwAKCvD+rTkM/8DuDviSngb9uiwE+a9XYPyFj+L989kG+361TQIsldcCkpYJA3CNowHV0vD/nNrG+
lpc_rms=-28.02
pitch_keycenter=g5
sample=Soloviolin1_pizzicato_MF_G5_RR3.opus
</region>

<region>
hikey=g6
hivel=127
lokey=f#6
lovel=0
lpc=kkDdQDq0acFjvVNBPxXKwN8ycz9jkNw/jcydvjyzHcASIBpAJtGzv4YWkD9xqzw+nbC9vt3buD1pAV0+IXSPwLQ/30AqdTbA1sTNvwDeKUDw7qC/KznDvx1oS0Ar0sK/
lpc_rms=-27.77
pitch_keycenter=g6
sample=Soloviolin1_pizzicato_MF_G6_RR3.opus
</region>
</group>

<group>
group_label=RR4_85-127
lpc_hicc1=127
lpc_locc1=85
seq_length=4
seq_position=4

<region>
hikey=a3
hivel=127
lokey=g#3
lovel=0
lpc=/H1dQf63wcGJ4SNBmSpWQCautcCwEa0/XFfmP3NCdD8I6ijAN5CgQAyCA8HSWNBAMCCNwL/6Dz8a4XxAkRQswKD95T4+g80+7FW5PwpBGsBDPwxAVvmFwJfZbkAqUoK/
lpc_rms=-27.29
offset=327
pitch_keycenter=a3
sample=Soloviolin1_pizzicato_FF_A3_RR4.opus
</region>

<region>
hikey=a4
hivel=127
lokey=g#4
lovel=0
lpc=tJwBQmVDpsIRRbNCCTlPwmZ3NEEHRNg/ok4tQWL3m8Fm1A1B6U53QYm5CsKultdBKAGsv7IjUsHQy1FA/Wk3QbLVBsEaPvS/lPDAQObp8b/rS1rAyhXWQP+39cC0BH1A
lpc_rms=-17.26
pitch_keycenter=a4
sample=Soloviolin1_pizzicato_FF_A4_RR4.opus
</region>

<region>
hikey=a5
hivel=127
lokey=g#5
lovel=0
lpc=7jkJQeWvmsEvxqVBEyxgwRrS2kDZtHrAFtNvQOqzy7+mDmLAHpkaQYj1NMF9ohlB11sRwcAoEEGz3PXAW+FdQG61PUA4R73A7YC/QBtxxMCNxftAofUPwXp23EDkLzTA
lpc_rms=-19.38
pitch_keycenter=a5
sample=Soloviolin1_pizzicato_FF_A5_RR4.opus
</region>

<region>
hikey=a6
hivel=127
lokey=g#6
lovel=0
lpc=47zEQA5bNcF8SilB8u0LwYZkHkFwyyDBYqr9QLD8tMCzN45AniXvv06RTrzRZuc+3zdVv7Z1xz9A8onAvEeiQPuyL8DfU7U/2a/4v55KEUALE5i/OuzKPtyVu773aJM+
lpc_rms=-25.49
pitch_keycenter=a6
sample=Soloviolin1_pizzicato_FF_A6_RR4.opus
</region>

<region>
hikey=b3
hivel=127
lokey=a#3
lovel=0
lpc=/8vvQeR9dcIAwCFCa7m2wCcOasByXebA8Y1RQTyWl8BWn4e/euSAP7fpAcEHPW1Baux8wVA6U0FiyvvAeLCEQObV7b/vNUpAUcJ1wJqhlUCLjjLAr9k2wMOtmUCZqgPA
lpc_rms=-20.90
pitch_keycenter=b3
sample=Soloviolin1_pizzicato_FF_B3_RR4.opus
</region>

<region>
hikey=b4
hivel=127
lokey=a#4
lovel=0
lpc=bKlRQcAH78GL/ABCN/bPwUCxi0E36CnBJKvXQCxtXsBsAyJAjTU6wORqmECGe7/AXRUtQOd2fr9MFNs/COxgvwugkD83Nu+8lBA1vxrs/z8giozAL9pWQEl/AcC4sMg/
lpc_rms=-19.98
pitch_keycenter=b4
sample=Soloviolin1_pizzicato_FF_B4_RR4.opus
</region>

<region>
hikey=b5
hivel=127
lokey=a#5
lovel=0
lpc=Qcm1QIzgIMF7Ue1A9xCCwAAmVEDhXl3A9mkyQA1Elb9wIas/YGVKvwtI07/lPxJAYzSxv57kfD/JF9i/doBcQGzPOMCs0rQ/QT7DvxKTkz+tTbu+J4WtPotd1r7XYEq+
lpc_rms=-21.90
pitch_keycenter=b5
sample=Soloviolin1_pizzicato_FF_B5_RR4.opus
</region>

<region>
hikey=E7
hivel=127
lokey=a#6
lovel=0
lpc=xVKYQLlE/MC9XbtA2TlDwHmnMEAOti3AnJIBQFztwL8xQBBAdQrsv7LiKj/4BlO+nTbGv7q8vD82K6A+GPHgvunmd77Lri29smuFPxSpqL/i8Y0/7LGSv2+pjj9taty+
lpc_rms=-18.97
pitch_keycenter=B6
sample=Soloviolin1_pizzicato_FF_B6_RR4.opus
</region>

<region>
hikey=c#4
hivel=127
lokey=c4
lovel=0
lpc=0LzXQnbsd8PDP2BDlXrlwrvUBkLNNqI//e+Awa7spkGYZeLB3ilvQqiwj8LO291B0XCxQfXv4cHFCUVBY3owQeXsv8Hq9yNB2NyYQMBKM8CP4I1AwOudwNWvasEYd3RB
lpc_rms=-18.75
pitch_keycenter=c#4
sample=Soloviolin1_pizzicato_FF_C#4_RR4.opus
</region>

<region>
hikey=c#5
hivel=127
lokey=c5
lovel=0
lpc=FgCDQWHDE8JpAh1CO0zxwReJi0H/p+nAzWZdQGOgxb9RetC/EJ+sQP/ygMC8XiY/6LKNvmnwvz48Ztg/pGqRv9reX7/2rmW/MYCRQKNQmMBmIWRAhPhAwPMYwT/FmAA/
lpc_rms=-18.70
pitch_keycenter=c#5
sample=Soloviolin1_pizzicato_FF_C#5_RR4.opus
</region>

<region>
hikey=c#6
hivel=127
lokey=c6
lovel=0
lpc=+ZkJQXvgZMFC1BNBIKiDwCi+RUAjAIvAPJuHQH3RKsCdM4k/4jdIPyzH1r2zaTs/pS8cwDNpBEDU0R6/JFO4P66JC8AmmAg/bbGXP8cZ4r8waCpA+u6GwHmq3D8Xyno/
lpc_rms=-29.85
pitch_keycenter=c#6
sample=Soloviolin1_pizzicato_FF_C#6_RR4.opus
</region>

<region>
hikey=d#4
hivel=127
lokey=d4
lovel=0
lpc=nJUqQTVPgsHvr2xAsLbdQOtH1sDjV/u/83fVQA3Cs7+hY+HAFQstQbrUrsDUSjjAGWgoQBnUR0DbTZrAzdxhQEftC785sp+/DUTjP9qG879+MERA6jiKwD7Xxz8saBI/
lpc_rms=-25.69
pitch_keycenter=d#4
sample=Soloviolin1_pizzicato_FF_D#4_RR4.opus
</region>

<region>
hikey=d#5
hivel=127
lokey=d5
lovel=0
lpc=Xb6NQYINLsKfeTRCcWbNwSeEyUAixW/AiBx5QcF/l8HGfy5BplsTwNVZNL/+f/K9962wv0BsSEBhazs+2OSRwMjFbkAhZSa+iFCUP8QykD8+W8PAEfa0QNWxasD4A/8/
lpc_rms=-27.60
pitch_keycenter=d#5
sample=Soloviolin1_pizzicato_FF_D#5_RR4.opus
</region>

<region>
hikey=d#6
hivel=127
lokey=d6
lovel=0
lpc=TQkWQUvOkcE8/YFB3uMEwYt5HEAzSey/HL5pQHD4rsCQ5qJA7d8WwMDjSj8jy54/pqBTwBaFZUCShPG/V+eHP/PfPb/DJbQ/Q47nv60LP8DC1axAg3sYwJw5gb/869k/
lpc_rms=-16.95
pitch_keycenter=d#6
sample=Soloviolin1_pizzicato_FF_D#6_RR4.opus
</region>

<region>
hikey=f4
hivel=127
lokey=e4
lovel=0
lpc=Ys9iQXimzsExil9BQmpEQEbRD8G8FvI+fdr5QPB3mMCIXpbAaAo7QRSCBcFrHh3Ad2CzQIJ5uz/3OAXB4fkAQXnDTD87Yr7Al5lEQJNkJEAJEGzAWt87wORfrkB5SMS/
lpc_rms=-20.93
pitch_keycenter=f4
sample=Soloviolin1_pizzicato_FF_F4_RR4.opus
</region>

<region>
hikey=f5
hivel=127
lokey=e5
lovel=0
lpc=VHwzQba8xcGSNsVBmNRlweIGqUCI+/jAwRCCQWLYiME6kBFBzQtVwIWVikDoDgTB790NQaqz0cBlswFBpXU+wXG3RkGRoPPAsqORQAK5rMDekgRB+rUPwb/4uUA1qAvA
lpc_rms=-26.37
pitch_keycenter=f5
sample=Soloviolin1_pizzicato_FF_F5_RR4.opus
</region>

<region>
hikey=f6
hivel=127
lokey=e6
lovel=0
lpc=YXOnQBDpFME5wPFAS6B6wAZVoD/WhMm+f75ZPvTjw76RfoY/XDQuPyDNQ8AN7oNAigVcwJ26AUBY/PS+JPNPv/RC0D9e0FDAEBk2QIHIJ7+86W89ZgMjv9Tjjz8kvvW+
lpc_rms=-17.89
pitch_keycenter=f6
sample=Soloviolin1_pizzicato_FF_F6_RR4.opus
</region>

<region>
hivel=127
key=g3
lovel=0
lpc=cMB3QqYxJcNKXxZD7ZIbwu8qmsElOR5B6crnQLL+BMAIpl7BTxDTQaqAA8LgDatBPSYEv6eyJcGvu+xA2XSlQKdogMFvZNVB+qy5wVzTtsDMe7FBNowswXRVhL5DmqQ/
lpc_rms=-28.42
offset=84
sample=Soloviolin1_pizzicato_FF_G3_RR4.opus
</region>

<region>
hikey=g4
hivel=127
lokey=f#4
lovel=0
lpc=qCwHQmU5vMJrkeRCbmKawhyuskEKhpZA5pi4QG3g0sGHlgFCUya4wa4nGkFv7pg/Dg7/wFBV6EC1vUa/2qWRwOKrO0CaGqdAXucuwdhYT0G13D3BfyMiQQNYDMH3nYNA
lpc_rms=-20.54
pitch_keycenter=g4
sample=Soloviolin1_pizzicato_FF_G4_RR4.opus
</region>

<region>
hikey=g5
hivel=127
lokey=f#5
lovel=0
lpc=2wC4QOWzHcFuoJ5AR52HPyjZq7/ziAfA4qRlQLCor78DPRQ+4nafPkAiJL8xkEg/F/SGv+wo+Dswoh8/DgCdP+4rB8Dh44A+8p6wP9LHGL1LLMO/Et7HP5Bzjb4RBzS+
lpc_rms=-23.24
pitch_keycenter=g5
sample=Soloviolin1_pizzicato_FF_G5_RR4.opus
</region>

<region>
hikey=g6
hivel=127
lokey=f#6
lovel=0
lpc=HPrJQDuCC8F4U1hAMHJJv7ux/T84yEvARtiOQAy6G8AxWqQ8CsoGP9KuRb/ctc4/z+cTwLPeKkCN3ui/Aa9PvxX+Ib8sJVRAqvMEwNfGAT+1mvE+fNgcPbIO078I/6g/
lpc_rms=-14.87
pitch_keycenter=g6
sample=Soloviolin1_pizzicato_FF_G6_RR4.opus
</region>
</group>

<group>
group_label=RR4_43-84
lpc_hicc1=84
lpc_locc1=43
seq_length=4
seq_position=4

<region>
hikey=a3
hivel=127
lokey=g#3
lovel=0
lpc=sR7eQW6IjsKx25JCUGQdwmosB0GRpJ++kpwCQaUEccE9VIJBzb0SwXe3CMHfKqVBY4yIwX9i4UDx1IRAFKxNwYP3fkEAkEPB+sYWQctATcFkqJtBaN2pwQnDTEFOnUzA
lpc_rms=-32.82
pitch_keycenter=a3
sample=Soloviolin1_pizzicato_MF_A3_RR4.opus
</region>

<region>
hikey=a4
hivel=127
lokey=g#4
lovel=0
lpc=/BkbQmUh5MIP2hdDgSsCw0L7vUIezK7Cory8Qt+ZpMJEolRCFz6vwZbCFcAJw01BdJSqwahxIUKBBHLCaM2BQuzBU8K6jSJCP1b4wb9vp0EJbTHBbkvNQD+F0cBWdGxA
lpc_rms=-24.29
pitch_keycenter=a4
sample=Soloviolin1_pizzicato_MF_A4_RR4.opus
</region>

<region>
hikey=a5
hivel=127
lokey=g#5
lovel=0
lpc=tgUxQQbtw8HhV7RBGoxEwSrE6ECwMn3Ast9Av8PPQD/QzWBAeD2dwPU2EkCpOQdA9ACuwM82pkB7wWa/TWt9wH9H1kDQNq3AarPfP7zZuz80XmbAFjwaQGlS4D8sGRrA
lpc_rms=-25.30
pitch_keycenter=a5
sample=Soloviolin1_pizzicato_MF_A5_RR4.opus
</region>

<region>
hikey=a6
hivel=127
lokey=g#6
lovel=0
lpc=ZpJGQT1x6cFDpe9BhmiDwSVS/UCYKOvA15T6QDOoEcHwJSZBv0kCwRD+jEB9NUzA9EnnQGO0ecGwYYNBHJvEwMAZk8AavBVBE3YOwfPEoUCChTe/yCs7P/dxoL/bG34+
lpc_rms=-36.32
pitch_keycenter=a6
sample=Soloviolin1_pizzicato_MF_A6_RR4.opus
</region>

<region>
hikey=b3
hivel=127
lokey=a#3
lovel=0
lpc=/fmJQm+eLsNfXB1DE29xwsE84kH3rz3C+lvBQYuCv0C6II9BN6A5wqfw/0GeAze/X8YLwBQdLcHLRr9Bop+pwW6TYkF/yezBTEg5QpRPHsKkwgNBK7mDQfY8fMGTl6hA
lpc_rms=-28.59
pitch_keycenter=b3
sample=Soloviolin1_pizzicato_MF_B3_RR4.opus
</region>

<region>
hikey=b4
hivel=127
lokey=a#4
lovel=0
lpc=GBjxQVWfncJ8ebBC3g9jwqwtp0FsXunAM/6ZQQSJB8KoJO1BvIeDwTlLrEAcRX1A/uIMQDoyJ8GJyqRAB0HrQAihk8GC9YFBQeH0v6++pcA2yvg+tzJ/P8/si77TF7g/
lpc_rms=-23.34
pitch_keycenter=b4
sample=Soloviolin1_pizzicato_MF_B4_RR4.opus
</region>

<region>
hikey=b5
hivel=127
lokey=a#5
lovel=0
lpc=JGJFQewl2sEBgeVBjxehwWh9FEFoaUc+wv+LwNbp0j+FPJpATyAWwTlPCUGeapC/nP4AwejAcEF+YnrBYOESQS5Thr/pjoLA39SXQBj0CcA7GOK/FKi6QEOAz8BQZP8/
lpc_rms=-22.73
pitch_keycenter=b5
sample=Soloviolin1_pizzicato_MF_B5_RR4.opus
</region>

<region>
hikey=E7
hivel=127
lokey=a#6
lovel=0
lpc=Z4O/QNxiUME5V2BBSaEgwUOr3kACDsvAxlPYQIUBv8DffIxAuvhlwHUrREDdMBHABaIZP1F97LyPHF4/Lz61vy4lMT3VeixA0BBswN36PEAH/h/AEv5LQK9gH8ALRjc/
lpc_rms=-45.19
pitch_keycenter=B6
sample=Soloviolin1_pizzicato_MF_B6_RR4.opus
</region>

<region>
hikey=c#4
hivel=127
lokey=c4
lovel=0
lpc=nnWIQiitOsPOOFtD2OYswwQY9UJHkpLCEr/bQHY1IEKzLxvCZ0rCQTm+7sF48jFCTAwjwp08AUKMFonBeNtrwfwTUkKZo5fCUJKJQtl6K8IWS6FBKfZ7wLm+FcGe++RA
lpc_rms=-21.05
pitch_keycenter=c#4
sample=Soloviolin1_pizzicato_MF_C#4_RR4.opus
</region>

<region>
hikey=c#5
hivel=127
lokey=c5
lovel=0
lpc=POOYQU5nKsKUyh9CFurHwR0rYEFtgYDBScCuQQ21lsFDCEpB80PHwJ8ZjEAGp8DADHHBQFUCOcCOQZo/nTumviJAxL6Vosa/Q3nCP4xSccBMWgBB6kAEwTUb4kDaqT3A
lpc_rms=-35.27
pitch_keycenter=c#5
sample=Soloviolin1_pizzicato_MF_C#5_RR4.opus
</region>

<region>
hikey=c#6
hivel=127
lokey=c6
lovel=0
lpc=KkoYQaDlosGyMY9B9W0HwQ6JSEBmPzPAd+hCQD5DAsC6mqw/kE7Qv7rS8D8Dk1w/b46IwOAarED39FPA/IKbP46X8L8vFTVA3vRTv6BR9b+kOWhAcQLhwFaW0UCYveS/
lpc_rms=-37.67
offset=783
pitch_keycenter=c#6
sample=Soloviolin1_pizzicato_MF_C#6_RR4.opus
</region>

<region>
hikey=d#4
hivel=127
lokey=d4
lovel=0
lpc=kCadQWlvU8L6GXhCB6Anwv8fg0EtfJLAFeUbQOthoz1xbgfAxo6Dv5ItgECDRv2/rQIQQL5tB8HtI4BBgZWMwU0STEFWUgDBgP+IQJQiB8Abzg1AxpJXwNbZc0BnWbi/
lpc_rms=-31.44
pitch_keycenter=d#4
sample=Soloviolin1_pizzicato_MF_D#4_RR4.opus
</region>

<region>
hikey=d#5
hivel=127
lokey=d5
lovel=0
lpc=KminQRWDT8LktkVC6wi/wVBJTEHmapjBpCuiQY22UcE8nFpBFxdVwSq2jz+RfcxAFtKwPoDWlMDyy1dACkVxwIcWJz86W5NAQglQwLek58DNG2lBOSs7wWTJAUE7i13A
lpc_rms=-37.35
pitch_keycenter=d#5
sample=Soloviolin1_pizzicato_MF_D#5_RR4.opus
</region>

<region>
hikey=d#6
hivel=127
lokey=d6
lovel=0
lpc=eZQaQS/1kMGxC0JBY9UEwOGbkb5I61vAtsC5QCqWjcDg9AFAoMP6Pm99vr/xvFc/frP7PritLz/B1TLANI0YQFq9jb49GY8/YAJiwJKT0b7YU4ZAJXaWvyb7AMAoT9o/
lpc_rms=-32.93
pitch_keycenter=d#6
sample=Soloviolin1_pizzicato_MF_D#6_RR4.opus
</region>

<region>
hikey=f4
hivel=127
lokey=e4
lovel=0
lpc=q8vhQaBAlsLvHK5CCR5wwth/5EFDiVbBd/AMQfJ7BMGn3kZAgB0iQWEZo8H0brRBf5uUwQloQ0EwGSzB9b6SQWY9vMGPqbBBSi+IwaZM6EAAYp2+aTEUQNgX1MAOv4hA
lpc_rms=-28.45
pitch_keycenter=f4
sample=Soloviolin1_pizzicato_MF_F4_RR4.opus
</region>

<region>
hikey=f5
hivel=127
lokey=e5
lovel=0
lpc=Ft5WQbki9sF2LOxB6N+NwZP4DkFJUbnA/jHDQJfUxMCWHEZAouOgP4oNq8BEB7NAcoSNv5Qqfr56jhbAMB7tQBxTLsHr7PxAF7aCvlrCscA2+/FAQU10wIxpBsCJZfQ/
lpc_rms=-29.87
pitch_keycenter=f5
sample=Soloviolin1_pizzicato_MF_F5_RR4.opus
</region>

<region>
hikey=f6
hivel=127
lokey=e6
lovel=0
lpc=88KoQJOEKcHiIQpBYvNFwJkacz02zn49BTCzPPTeCUAcuZrA7RadQPOdZMDUEDhAbXTbv2A/rD6W34Y/pwKCv7nJP77c9rO/psiBQCDYf8B/1u4/Sa9fP1ZrBMB2kYk/
lpc_rms=-31.73
offset=3349
pitch_keycenter=f6
sample=Soloviolin1_pizzicato_MF_F6_RR4.opus
</region>

<region>
hivel=127
key=g3
lovel=0
lpc=oeQLQjqsqcL70ZBCRGTJwXClLT8mw5JA2guiveXxMcCc0MA/0PZ5wEzadsAh0CZBtrVXQPXT+sASfy5Ac2P1wELCqUD2C2RAqz+ZwMb9M0AytUVAPK3ZwAzsNj/pChRA
lpc_rms=-40.35
offset=9736
sample=Soloviolin1_pizzicato_MF_G3_RR4.opus
</region>

<region>
hikey=g4
hivel=127
lokey=f#4
lovel=0
lpc=rVtGQpZeBMMW+htD9jjkwhqofEIkxSTCEPADQksAfcE7L6I/F9zJQLnenMGAVghCMMb6wZlSZEESBY3A/nqrQCDNPMEXG7RBYb+dwYUipEByrCk9dnQkQSlLksHiRBlB
lpc_rms=-21.36
pitch_keycenter=g4
sample=Soloviolin1_pizzicato_MF_G4_RR4.opus
</region>

<region>
hikey=g5
hivel=127
lokey=f#5
lovel=0
lpc=4TohQVDhxsGEbeJByrW2wTP3i0HEWmXBt9s0QdczBcH1j6VAaQyTP3b/usAP+sRAfsmQwO3e7z+iT+C64kAvvpSM1D51g0PAWZnOQFne48AuR/FAakCtwOO/jj++LGg+
lpc_rms=-37.99
pitch_keycenter=g5
sample=Soloviolin1_pizzicato_MF_G5_RR4.opus
</region>

<region>
hikey=g6
hivel=127
lokey=f#6
lovel=0
lpc=3dvgQONQbsEbIk5BE2yswOGGwj+Znfm+myC7P1dUOMA7M/Y/LqbJPoSEJsDEzJhANQJdwNhwzD6tm7g/YA2qwG1s7kAPf1fAVhCbvnYjjr7rWs4/H/z7v41L9z+9rzS/
lpc_rms=-38.89
pitch_keycenter=g6
sample=Soloviolin1_pizzicato_MF_G6_RR4.opus
</region>
</group>

<group>
group_label=RR4_0-42
lpc_hicc1=42
lpc_locc1=0
seq_length=4
seq_position=4

<region>
hikey=a3
hivel=127
lokey=g#3
lovel=0
lpc=BrZnQa8v8cEror1BXa4VwVoffT8RveA+g83GPz9BJcDe/FY/uU1av69iWz/L2Fg/rMmjv5PsOz9V6os+Osj5vsga8r7Ep4U+hBlYP8uA2r2bYrY+Gdbkvw0gVkCQjwbA
lpc_rms=-51.57
offset=12548
pitch_keycenter=a3
sample=Soloviolin1_pizzicato_PP_A3_RR4.opus
</region>

<region>
hikey=a4
hivel=127
lokey=g#4
lovel=0
lpc=GZOVQVhTLcKURAlCJCrlwDDJT8B5kqW/Pra4QIE93MDd0nNANiVtP9rtPsBv7k5AirkdvzO1DMC/KRJA+jMkP45Gvb/bbF6/ij01Py5w7T5LHcY+iTXpPmNUWcBvVSVA
lpc_rms=-46.90
pitch_keycenter=a4
sample=Soloviolin1_pizzicato_PP_A4_RR4.opus
</region>

<region>
hikey=a5
hivel=127
lokey=g#5
lovel=0
lpc=IMvbQLAJbMEkEk1BvKijwO2ucr7N25g/qfwHP4R4K8D0q3ZAm80lwHRrjL+cYkJA9D63v6vUZr+kfvU/NK0EwN+7yj+sGtS+aAmaPoCEOr9+2IY/lQVFv51EKT/Dhx+/
lpc_rms=-49.94
pitch_keycenter=a5
sample=Soloviolin1_pizzicato_PP_A5_RR4.opus
</region>

<region>
hikey=a6
hivel=127
lokey=g#6
lovel=0
lpc=riysQBCUG8Hg0dRAicVWvxEB9T597VvArqKYQGAjYcDJFQpA/xYFwA/Y1z//e46/WNSwP94jG8C/JcU/sjAfv5TdjD5Bq8E+4mRkvx1RPz8yFlG+tqvQPtSipb5t4IE+
lpc_rms=-53.18
offset=11278
pitch_keycenter=a6
sample=Soloviolin1_pizzicato_PP_A6_RR4.opus
</region>

<region>
hikey=b3
hivel=127
lokey=a#3
lovel=0
lpc=LMizQbldVMJAOURCHC6zwbXngUCfNJu/cahaQJlsrMAveCVAz0d9P6EG5r4C01G//asMQInvlL/CvfG/M6pRQP7anj8cwJ7AapM8QInJ2D4fzKk+6mqqwGuo4ED8uD7A
lpc_rms=-45.70
pitch_keycenter=b3
sample=Soloviolin1_pizzicato_PP_B3_RR4.opus
</region>

<region>
hikey=b4
hivel=127
lokey=a#4
lovel=0
lpc=ZitSQWIG+MHOHgFCELCxwXl9PkEWttjAvyzSQKS2EMFKxRJBerszwFh3s8BIpyFBmYIKwdtqAEHUx9XAomWMQE3ZocCTAsZAvTq8wCwzR0AQYMm+zQchwPijakB2qIO/
lpc_rms=-39.40
pitch_keycenter=b4
sample=Soloviolin1_pizzicato_PP_B4_RR4.opus
</region>

<region>
hikey=b5
hivel=127
lokey=a#5
lovel=0
lpc=YnHNQDBNV8HWeThB6y2uwGMrMEAhSN6/REztvc0rUD93NZi/FLb0P1r0Cb8+bRTAK2VNQGeVXcArhJ9ABPp/wOkxSj65Jv0/t3Tcv7Bs6D93zaW/uy61P5kTEMBph4c/
lpc_rms=-48.98
offset=9551
pitch_keycenter=b5
sample=Soloviolin1_pizzicato_PP_B5_RR4.opus
</region>

<region>
hikey=E7
hivel=127
lokey=a#6
lovel=0
lpc=txheQHRVscCntXdAx3C1v1gTJj8Z4Te/kt0UPwdZg74m0Uy+XF4eP0bLkL/khgI/C/EPv8s2Qz9wbtq+taiBvT/k8b4cdG8/eEARvyw04D4mohU+08Mkv4oeMj93R5i+
lpc_rms=-58.71
offset=13309
pitch_keycenter=B6
sample=Soloviolin1_pizzicato_PP_B6_RR4.opus
</region>

<region>
hikey=c#4
hivel=127
lokey=c4
lovel=0
lpc=Av0FQjZSq8KBhrRCixZRwiSCgkGqGHPA/eBCQLWRGcEmhqFBX86nwRqO00A8aiJBtuk+wf+dRT/rIgRBPtAgwKA4rsCA34dAuQpEQKgbhsDv2BxAAPXNv3tBlcAaCYRA
lpc_rms=-38.03
pitch_keycenter=c#4
sample=Soloviolin1_pizzicato_PP_C#4_RR4.opus
</region>

<region>
hikey=c#5
hivel=127
lokey=c5
lovel=0
lpc=3D4cQZhct8FGt7NB/5U/wUl6kEAmdWPAnv2TQMxJoMBMhlNAKKF7vpuHIsAnxXxAahY2wGSVDj/KvhlAhM0rwHNXQL4xikk/iPDYP32tgMD8UolA+QAqwKoYmL6c6aY/
lpc_rms=-46.38
pitch_keycenter=c#5
sample=Soloviolin1_pizzicato_PP_C#5_RR4.opus
</region>

<region>
hikey=c#6
hivel=127
lokey=c6
lovel=0
lpc=CuLDQF6JM8GMHfdAi5YnwCW2ET/njh+/f6pkP+rlf79RlFo/NtoZPySNTcAZ5kxALnbqPiNKq794Qla+unGiPZ0p+D4krkk/bHHBv2k/dD5Htss/NJ0ywJM1Kj8aEIU/
lpc_rms=-37.56
pitch_keycenter=c#6
sample=Soloviolin1_pizzicato_PP_C#6_RR4.opus
</region>

<region>
hikey=d#4
hivel=127
lokey=d4
lovel=0
lpc=aWPCQZvNcMJ3zYBC3QMnwuDghkHzeMfAItkqQe77lMFJhY1BYMBDwTIJ1UAVIUQ/XALvwKzYB0Fp5ozA/yq+P+MECEAwyDbAzREMwE5d2EBPB5XAQIykv7LdXkDHJq+/
lpc_rms=-39.78
pitch_keycenter=d#4
sample=Soloviolin1_pizzicato_PP_D#4_RR4.opus
</region>

<region>
hikey=d#5
hivel=127
lokey=d5
lovel=0
lpc=TMQxQQKWwcEQ3ZlBXq/5wLxwmEB4Nr3ApT60QLZSIcC8emo/fm/hv86ZjL7/nJc/oew/QEJxusDGEtRANN3CwHpQBkCjmhw+WBb2Plrl0L/dkgNAPMeLP9LSb8Ch8wtA
lpc_rms=-45.46
pitch_keycenter=d#5
sample=Soloviolin1_pizzicato_PP_D#5_RR4.opus
</region>

<region>
hikey=d#6
hivel=127
lokey=d6
lovel=0
lpc=ow3bQFXeOMFCDORA1dyyvxgcQ79hLEM/+jWYv/NxFD9QMQA/l4DJvqhTMT/oa2s+UFGPv1l0zz88d2K/nGujv2GEIUD+mRrAaTAAQMb3cMA6KmVAqh2cPRzpAMCAI7g/
lpc_rms=-49.69
pitch_keycenter=d#6
sample=Soloviolin1_pizzicato_PP_D#6_RR4.opus
</region>

<region>
hikey=f4
hivel=127
lokey=e4
lovel=0
lpc=WuxLQZ6k28Fr2bVB/8kBwfykMT7fMj+/T9tTQM+DlcAsDjM/BvopQNRTgr8luzW+oVxuPjQ6cr+bR0I/rqUGP5J48L2T9U6/tF+Xv3v8dkD4RIa/ZEU0wMO7O0BvLYG/
lpc_rms=-51.77
offset=8462
pitch_keycenter=f4
sample=Soloviolin1_pizzicato_PP_F4_RR4.opus
</region>

<region>
hikey=f5
hivel=127
lokey=e5
lovel=0
lpc=AQMUQcJ5oMHcNZlB1ykgwa/VMkBEoMi/o4uVPe3rkT+Rb3O/jtrzPwnHjMB/4D9Ah2xBQG+KzcC31ORAvxe8wPOqFUDzKIg/rmYEwBf+0z9Azp6/tiYWQAD+JsCoSIM/
lpc_rms=-47.05
pitch_keycenter=f5
sample=Soloviolin1_pizzicato_PP_F5_RR4.opus
</region>

<region>
hikey=f6
hivel=127
lokey=e6
lovel=0
lpc=uTF3QICpzsABi4VA0Ch4v6K1Or8XTEY/1FuWv3lbD0Beesy/h4VgvrmIQD87cD+/5B3HP+TXzr88U5M/IpiuvmeTBr9Y8zG/KwqtP2ecOb6bcEC/AiK7P2ONkr+9T7g+
lpc_rms=-53.64
offset=13088
pitch_keycenter=f6
sample=Soloviolin1_pizzicato_PP_F6_RR4.opus
</region>

<region>
hivel=127
key=g3
lovel=0
lpc=NjIAQUW6asEXH/pA5as5v7B6yD2nXrq+TYlFP2VmMb9TKPy98BOovSAH0T65HYE+fOtDvs8dwjwV9+Q+NLaqvjKQa78nQ4I7Q2GiPu5oHD/8DuY+zwM3vxb4NL/4bmM/
lpc_rms=-59.78
offset=12071
sample=Soloviolin1_pizzicato_PP_G3_RR4.opus
</region>

<region>
hikey=g4
hivel=127
lokey=f#4
lovel=0
lpc=qDLiQcW6bcL3wCxCAwdRwTxINEA4LzfAwG17QMAOmcAzKu6/ZjxPQVFjbcGANv1As4mcP93A78AlRKhAJ5gYQAmG0MB6l6BAv/t6wP4SukAcwYDAZ1jXPweG47/EgKU/
lpc_rms=-42.44
pitch_keycenter=g4
sample=Soloviolin1_pizzicato_PP_G4_RR4.opus
</region>

<region>
hikey=g5
hivel=127
lokey=f#5
lovel=0
lpc=Es68QK8oN8Ff5RBBAwyfwIPuNEBKyLu/AkeEP/KJ3r80vT9AcRguwMfi8T5jLGM++dNdP3ttGMDm1X1Apf16wBsiLUAuQAHAZpyfPyx7h788eQNA7YmYv40HfD71DU2+
lpc_rms=-49.91
offset=12992
pitch_keycenter=g5
sample=Soloviolin1_pizzicato_PP_G5_RR4.opus
</region>

<region>
hikey=g6
hivel=127
lokey=f#6
lovel=0
lpc=sH6NQLTk8MC6045AAP/Yv8zAyz+S53M+JyPFv8VeIL6Hhdo/c8CAv4hS9L0jJ3U/ZESCv9G/xD68iMy9PHMav+xv4T66Qy8/AhkTvtv7qr7IaDS+8fP3ve2IFz8leIe+
lpc_rms=-53.87
pitch_keycenter=g6
sample=Soloviolin1_pizzicato_PP_G6_RR4.opus
</region>
</group>